<svg width="250" height="160" viewBox="0 0 250 160" fill="none" xmlns="http://www.w3.org/2000/svg">
<mask id="path-1-inside-1_500_10" fill="white">
<path d="M0 10C0 4.47715 4.47715 0 10 0H240C245.523 0 250 4.47715 250 10V121H0V10Z"/>
</mask>
<path d="M0 10C0 4.47715 4.47715 0 10 0H240C245.523 0 250 4.47715 250 10V121H0V10Z" fill="white"/>
<path d="M-3 10C-3 2.8203 2.8203 -3 10 -3H240C247.18 -3 253 2.8203 253 10H247C247 6.13401 243.866 3 240 3H10C6.13401 3 3 6.13401 3 10H-3ZM250 121H0H250ZM-3 121V10C-3 2.8203 2.8203 -3 10 -3V3C6.13401 3 3 6.13401 3 10V121H-3ZM240 -3C247.18 -3 253 2.8203 253 10V121H247V10C247 6.13401 243.866 3 240 3V-3Z" fill="#2E2878" mask="url(#path-1-inside-1_500_10)"/>
<mask id="path-3-inside-2_500_10" fill="white">
<path d="M0 121H250V150C250 155.523 245.523 160 240 160H10C4.47716 160 0 155.523 0 150V121Z"/>
</mask>
<path d="M0 121H250V150C250 155.523 245.523 160 240 160H10C4.47716 160 0 155.523 0 150V121Z" fill="#2E2878"/>
<path d="M0 121H250H0ZM253 150C253 157.18 247.18 163 240 163H10C2.8203 163 -3 157.18 -3 150H3C3 153.866 6.13401 157 10 157H240C243.866 157 247 153.866 247 150H253ZM10 163C2.8203 163 -3 157.18 -3 150V121H3V150C3 153.866 6.13401 157 10 157V163ZM253 121V150C253 157.18 247.18 163 240 163V157C243.866 157 247 153.866 247 150V121H253Z" fill="#2E2878" mask="url(#path-3-inside-2_500_10)"/>
<path d="M37.1605 106V16.912H57.2565V106H37.1605ZM8.8725 33.168V15.632H85.5445V33.168H8.8725ZM134.897 107.408C128.155 107.408 121.883 106.256 116.081 103.952C110.363 101.563 105.329 98.2347 100.977 93.968C96.7098 89.7013 93.3818 84.752 90.9925 79.12C88.6032 73.4027 87.4085 67.2587 87.4085 60.688C87.4085 54.1173 88.6032 48.016 90.9925 42.384C93.3818 36.6667 96.7098 31.7173 100.977 27.536C105.243 23.3547 110.235 20.112 115.953 17.808C121.755 15.4187 128.027 14.224 134.769 14.224C141.937 14.224 148.294 15.376 153.84 17.68C159.473 19.984 164.379 23.1413 168.561 27.152L155.121 40.72C152.731 38.16 149.83 36.1547 146.417 34.704C143.089 33.2533 139.206 32.528 134.769 32.528C130.843 32.528 127.217 33.2107 123.889 34.576C120.646 35.856 117.83 37.7333 115.441 40.208C113.137 42.6827 111.302 45.6693 109.937 49.168C108.657 52.6667 108.017 56.5067 108.017 60.688C108.017 64.9547 108.657 68.8373 109.937 72.336C111.302 75.8347 113.137 78.8213 115.441 81.296C117.83 83.7707 120.646 85.6907 123.889 87.056C127.217 88.4213 130.843 89.104 134.769 89.104C139.377 89.104 143.387 88.3787 146.801 86.928C150.214 85.4773 153.158 83.472 155.632 80.912L169.201 94.48C164.849 98.4907 159.857 101.648 154.225 103.952C148.678 106.256 142.235 107.408 134.897 107.408ZM205.903 107.408C198.479 107.408 192.079 106.213 186.703 103.824C181.412 101.349 176.548 97.6373 172.111 92.688L185.167 79.76C188.068 83.088 191.268 85.6907 194.767 87.568C198.351 89.36 202.489 90.256 207.183 90.256C211.449 90.256 214.735 89.488 217.039 87.952C219.428 86.416 220.623 84.2827 220.623 81.552C220.623 79.0773 219.855 77.072 218.319 75.536C216.783 74 214.735 72.6773 212.175 71.568C209.7 70.4587 206.927 69.392 203.854 68.368C200.868 67.344 197.881 66.192 194.895 64.912C191.908 63.5467 189.135 61.8827 186.575 59.92C184.1 57.872 182.095 55.3547 180.559 52.368C179.023 49.296 178.255 45.456 178.255 40.848C178.255 35.3013 179.577 30.5227 182.223 26.512C184.953 22.5013 188.708 19.472 193.487 17.424C198.265 15.2907 203.769 14.224 209.999 14.224C216.313 14.224 222.073 15.3333 227.279 17.552C232.569 19.7707 236.921 22.8 240.335 26.64L227.279 39.568C224.548 36.752 221.775 34.6613 218.959 33.296C216.228 31.9307 213.113 31.248 209.615 31.248C206.116 31.248 203.343 31.9307 201.295 33.296C199.247 34.576 198.223 36.4533 198.223 38.928C198.223 41.232 198.991 43.1093 200.527 44.56C202.063 45.9253 204.068 47.12 206.543 48.144C209.103 49.168 211.876 50.192 214.863 51.216C217.935 52.24 220.964 53.4347 223.951 54.8C226.937 56.1653 229.668 57.9147 232.143 60.048C234.703 62.096 236.751 64.7413 238.287 67.984C239.823 71.1413 240.59 75.0667 240.59 79.76C240.59 88.3787 237.519 95.1627 231.375 100.112C225.231 104.976 216.74 107.408 205.903 107.408Z" fill="#E70000"/>
<path d="M24.6705 136.761L21.9602 137.528C21.7898 137.077 21.5384 136.638 21.206 136.212C20.8821 135.777 20.4389 135.419 19.8764 135.138C19.3139 134.857 18.5938 134.716 17.7159 134.716C16.5142 134.716 15.5128 134.993 14.7116 135.547C13.919 136.092 13.5227 136.787 13.5227 137.631C13.5227 138.381 13.7955 138.973 14.3409 139.408C14.8864 139.842 15.7386 140.205 16.8977 140.494L19.8125 141.21C21.5682 141.636 22.8764 142.288 23.7372 143.166C24.598 144.036 25.0284 145.156 25.0284 146.528C25.0284 147.653 24.7045 148.659 24.0568 149.545C23.4176 150.432 22.5227 151.131 21.3722 151.642C20.2216 152.153 18.8835 152.409 17.358 152.409C15.3551 152.409 13.6974 151.974 12.3849 151.105C11.0724 150.236 10.2415 148.966 9.89205 147.295L12.7557 146.58C13.0284 147.636 13.544 148.429 14.3026 148.957C15.0696 149.486 16.071 149.75 17.3068 149.75C18.7131 149.75 19.8295 149.452 20.6562 148.855C21.4915 148.25 21.9091 147.526 21.9091 146.682C21.9091 146 21.6705 145.429 21.1932 144.969C20.7159 144.5 19.983 144.151 18.9943 143.92L15.7216 143.153C13.9233 142.727 12.6023 142.067 11.7585 141.172C10.9233 140.268 10.5057 139.139 10.5057 137.784C10.5057 136.676 10.8168 135.696 11.4389 134.844C12.0696 133.991 12.9261 133.322 14.0085 132.837C15.0994 132.351 16.3352 132.108 17.7159 132.108C19.6591 132.108 21.1847 132.534 22.2926 133.386C23.4091 134.239 24.2017 135.364 24.6705 136.761ZM47.9872 152.409C46.2145 152.409 44.6591 151.987 43.321 151.143C41.9915 150.3 40.9517 149.119 40.2017 147.602C39.4602 146.085 39.0895 144.312 39.0895 142.284C39.0895 140.239 39.4602 138.453 40.2017 136.928C40.9517 135.402 41.9915 134.217 43.321 133.374C44.6591 132.53 46.2145 132.108 47.9872 132.108C49.76 132.108 51.3111 132.53 52.6406 133.374C53.9787 134.217 55.0185 135.402 55.76 136.928C56.51 138.453 56.885 140.239 56.885 142.284C56.885 144.312 56.51 146.085 55.76 147.602C55.0185 149.119 53.9787 150.3 52.6406 151.143C51.3111 151.987 49.76 152.409 47.9872 152.409ZM47.9872 149.699C49.3338 149.699 50.4418 149.354 51.3111 148.663C52.1804 147.973 52.8239 147.065 53.2415 145.94C53.6591 144.815 53.8679 143.597 53.8679 142.284C53.8679 140.972 53.6591 139.749 53.2415 138.615C52.8239 137.482 52.1804 136.565 51.3111 135.866C50.4418 135.168 49.3338 134.818 47.9872 134.818C46.6406 134.818 45.5327 135.168 44.6634 135.866C43.794 136.565 43.1506 137.482 42.733 138.615C42.3154 139.749 42.1065 140.972 42.1065 142.284C42.1065 143.597 42.3154 144.815 42.733 145.94C43.1506 147.065 43.794 147.973 44.6634 148.663C45.5327 149.354 46.6406 149.699 47.9872 149.699ZM74.9475 125.818V152H71.9304V125.818H74.9475ZM103.288 143.972V132.364H106.305V152H103.288V148.676H103.084C102.624 149.673 101.908 150.521 100.936 151.22C99.9645 151.911 98.7373 152.256 97.2543 152.256C96.027 152.256 94.9361 151.987 93.9816 151.45C93.027 150.905 92.277 150.087 91.7316 148.996C91.1861 147.896 90.9134 146.511 90.9134 144.841V132.364H93.9304V144.636C93.9304 146.068 94.331 147.21 95.1321 148.062C95.9418 148.915 96.9731 149.341 98.2259 149.341C98.9759 149.341 99.7387 149.149 100.514 148.766C101.298 148.382 101.955 147.794 102.483 147.001C103.02 146.209 103.288 145.199 103.288 143.972ZM130.811 132.364V134.92H120.635V132.364H130.811ZM123.601 127.659H126.618V146.375C126.618 147.227 126.742 147.866 126.989 148.293C127.244 148.71 127.568 148.991 127.96 149.136C128.361 149.273 128.783 149.341 129.226 149.341C129.558 149.341 129.831 149.324 130.044 149.29C130.257 149.247 130.428 149.213 130.555 149.188L131.169 151.898C130.965 151.974 130.679 152.051 130.313 152.128C129.946 152.213 129.482 152.256 128.919 152.256C128.067 152.256 127.232 152.072 126.413 151.706C125.604 151.339 124.93 150.781 124.394 150.031C123.865 149.281 123.601 148.335 123.601 147.193V127.659ZM145.789 152V132.364H148.807V152H145.789ZM147.324 129.091C146.736 129.091 146.228 128.891 145.802 128.49C145.385 128.089 145.176 127.608 145.176 127.045C145.176 126.483 145.385 126.001 145.802 125.601C146.228 125.2 146.736 125 147.324 125C147.912 125 148.414 125.2 148.832 125.601C149.258 126.001 149.471 126.483 149.471 127.045C149.471 127.608 149.258 128.089 148.832 128.49C148.414 128.891 147.912 129.091 147.324 129.091ZM172.75 152.409C170.977 152.409 169.422 151.987 168.084 151.143C166.754 150.3 165.714 149.119 164.964 147.602C164.223 146.085 163.852 144.312 163.852 142.284C163.852 140.239 164.223 138.453 164.964 136.928C165.714 135.402 166.754 134.217 168.084 133.374C169.422 132.53 170.977 132.108 172.75 132.108C174.522 132.108 176.074 132.53 177.403 133.374C178.741 134.217 179.781 135.402 180.522 136.928C181.272 138.453 181.647 140.239 181.647 142.284C181.647 144.312 181.272 146.085 180.522 147.602C179.781 149.119 178.741 150.3 177.403 151.143C176.074 151.987 174.522 152.409 172.75 152.409ZM172.75 149.699C174.096 149.699 175.204 149.354 176.074 148.663C176.943 147.973 177.586 147.065 178.004 145.94C178.422 144.815 178.63 143.597 178.63 142.284C178.63 140.972 178.422 139.749 178.004 138.615C177.586 137.482 176.943 136.565 176.074 135.866C175.204 135.168 174.096 134.818 172.75 134.818C171.403 134.818 170.295 135.168 169.426 135.866C168.557 136.565 167.913 137.482 167.495 138.615C167.078 139.749 166.869 140.972 166.869 142.284C166.869 143.597 167.078 144.815 167.495 145.94C167.913 147.065 168.557 147.973 169.426 148.663C170.295 149.354 171.403 149.699 172.75 149.699ZM199.71 140.188V152H196.693V132.364H199.608V135.432H199.863C200.324 134.435 201.022 133.634 201.96 133.028C202.897 132.415 204.108 132.108 205.591 132.108C206.92 132.108 208.084 132.381 209.081 132.926C210.078 133.463 210.853 134.281 211.407 135.381C211.961 136.472 212.238 137.852 212.238 139.523V152H209.221V139.727C209.221 138.185 208.821 136.983 208.02 136.122C207.218 135.253 206.119 134.818 204.721 134.818C203.758 134.818 202.897 135.027 202.139 135.445C201.389 135.862 200.797 136.472 200.362 137.273C199.927 138.074 199.71 139.045 199.71 140.188ZM242.101 136.761L239.39 137.528C239.22 137.077 238.968 136.638 238.636 136.212C238.312 135.777 237.869 135.419 237.307 135.138C236.744 134.857 236.024 134.716 235.146 134.716C233.944 134.716 232.943 134.993 232.142 135.547C231.349 136.092 230.953 136.787 230.953 137.631C230.953 138.381 231.226 138.973 231.771 139.408C232.317 139.842 233.169 140.205 234.328 140.494L237.243 141.21C238.998 141.636 240.307 142.288 241.167 143.166C242.028 144.036 242.459 145.156 242.459 146.528C242.459 147.653 242.135 148.659 241.487 149.545C240.848 150.432 239.953 151.131 238.802 151.642C237.652 152.153 236.314 152.409 234.788 152.409C232.785 152.409 231.128 151.974 229.815 151.105C228.503 150.236 227.672 148.966 227.322 147.295L230.186 146.58C230.459 147.636 230.974 148.429 231.733 148.957C232.5 149.486 233.501 149.75 234.737 149.75C236.143 149.75 237.26 149.452 238.086 148.855C238.922 148.25 239.339 147.526 239.339 146.682C239.339 146 239.101 145.429 238.623 144.969C238.146 144.5 237.413 144.151 236.424 143.92L233.152 143.153C231.353 142.727 230.032 142.067 229.189 141.172C228.353 140.268 227.936 139.139 227.936 137.784C227.936 136.676 228.247 135.696 228.869 134.844C229.5 133.991 230.356 133.322 231.439 132.837C232.53 132.351 233.765 132.108 235.146 132.108C237.089 132.108 238.615 132.534 239.723 133.386C240.839 134.239 241.632 135.364 242.101 136.761Z" fill="white"/>
</svg>
