<?xml version="1.0" standalone="no"?>
<!DOCTYPE svg PUBLIC "-//W3C//DTD SVG 20010904//EN"
 "http://www.w3.org/TR/2001/REC-SVG-20010904/DTD/svg10.dtd">
<svg version="1.0" xmlns="http://www.w3.org/2000/svg"
 width="690.000000pt" height="690.000000pt" viewBox="0 0 690.000000 690.000000"
 preserveAspectRatio="xMidYMid meet">
<metadata>
Created by potrace 1.14, written by Peter Selinger 2001-2017
</metadata>
<g transform="translate(0.000000,690.000000) scale(0.100000,-0.100000)"
fill="#000000" stroke="none">
<path d="M880 5810 l0 -640 -440 0 -440 0 0 -515 0 -515 440 0 440 0 0 -1117
c0 -1050 1 -1126 19 -1248 111 -750 543 -1189 1281 -1302 169 -25 489 -23 675
6 77 11 183 31 235 44 l95 23 112 115 c61 63 124 130 140 150 15 19 195 207
398 418 204 210 371 386 373 390 1 5 -26 18 -60 31 -328 118 -611 409 -722
742 -82 244 -86 509 -10 748 245 780 1186 1098 1849 625 247 -176 434 -466
485 -753 l13 -72 569 0 568 0 -5 38 c-2 20 -10 78 -16 127 -57 465 -283 935
-618 1287 -584 614 -1449 860 -2278 647 -802 -205 -1451 -856 -1658 -1664 -47
-184 -65 -313 -72 -520 -9 -283 29 -538 119 -810 41 -125 160 -381 221 -475
l36 -55 -48 -3 c-183 -11 -398 113 -481 278 -64 126 -60 -43 -60 2413 l0 2247
-580 0 -580 0 0 -640z"/>
<path d="M4807 1263 c-395 -410 -716 -747 -714 -750 9 -8 278 -42 387 -48 127
-7 346 7 485 31 653 111 1238 505 1586 1065 52 83 171 323 203 407 l16 42
-623 -1 -622 -1 -718 -745z"/>
</g>
</svg>
