<svg width="106" height="584" viewBox="0 0 106 584" fill="none" xmlns="http://www.w3.org/2000/svg">
<path d="M33.0781 68.5781V60.2813C29.5156 59.7188 26.1875 58.8047 23.0938 57.5391C20 56.3203 17.3281 54.7031 15.0781 52.6875C12.7812 50.625 10.9766 48.1172 9.66406 45.1641C8.35156 42.2578 7.71875 38.8359 7.76562 34.8984C7.76562 31.5703 8.30469 28.6172 9.38281 26.0391C10.5078 23.4609 12.0312 21.1875 13.9531 19.2188C15.875 17.25 18.0781 15.5859 20.5625 14.2266C23.0938 12.9141 25.7656 11.8359 28.5781 10.9922C31.3906 10.1484 34.25 9.51563 37.1562 9.09375C40.1094 8.71875 42.9688 8.53125 45.7344 8.53125H60.7109C63.4766 8.53125 66.3125 8.71875 69.2188 9.09375C72.1719 9.51563 75.0547 10.1484 77.8672 10.9922C80.6797 11.8359 83.3281 12.9375 85.8125 14.2969C88.3438 15.6563 90.5469 17.3203 92.4219 19.2891C94.2969 21.2109 95.7734 23.4609 96.8516 26.0391C97.9766 28.6641 98.5625 31.6172 98.6094 34.8984C98.6094 38.8359 97.9297 42.2578 96.5703 45.1641C95.2578 48.0703 93.4531 50.5547 91.1562 52.6172C88.8125 54.6797 86.0938 56.3203 83 57.5391C79.9062 58.8047 76.6016 59.7188 73.0859 60.2812V68.5781C77.7734 68.0625 82.1094 66.9375 86.0938 65.2031C90.125 63.5156 93.5938 61.2422 96.5 58.3828C99.4062 55.5703 101.68 52.1953 103.32 48.2578C105.008 44.3203 105.828 39.8672 105.781 34.8984C105.734 30.8203 105.078 27.1406 103.812 23.8594C102.594 20.5781 100.906 17.6719 98.75 15.1406C96.5938 12.5625 94.0625 10.3359 91.1562 8.46094C88.25 6.58594 85.1328 5.03906 81.8047 3.82031C78.4297 2.60156 74.9375 1.6875 71.3281 1.07813C67.7188 0.46875 64.1328 0.140625 60.5703 0.09375L45.7344 0.09375C42.1719 0.140625 38.5859 0.46875 34.9766 1.07813C31.4141 1.6875 27.9453 2.60156 24.5703 3.82031C21.2422 5.03906 18.125 6.5625 15.2188 8.39063C12.3125 10.2656 9.78125 12.5156 7.625 15.1406C5.46875 17.6719 3.75781 20.5781 2.49219 23.8594C1.22656 27.1406 0.59375 30.8203 0.59375 34.8984C0.546875 39.7734 1.34375 44.1563 2.98438 48.0469C4.67188 51.9844 6.99219 55.3828 9.94531 58.2422C12.8047 61.1016 16.2266 63.3984 20.2109 65.1328C24.1953 66.8672 28.4844 68.0156 33.0781 68.5781ZM41.1641 87.0703H38.8438C33.6875 87.0703 28.7891 87.8438 24.1484 89.3906C19.5078 90.9375 15.4531 93.1875 11.9844 96.1406C8.46875 99 5.67969 102.539 3.61719 106.758C1.60156 110.977 0.59375 115.758 0.59375 121.102C0.59375 126.398 1.625 131.133 3.6875 135.305C5.75 139.477 8.51562 143.016 11.9844 145.922C15.5 148.828 19.5547 151.031 24.1484 152.531C28.7891 154.078 33.6875 154.875 38.8438 154.922H41.1641C46.3203 154.875 51.2188 154.078 55.8594 152.531C60.5 150.984 64.5781 148.781 68.0938 145.922C71.5625 142.969 74.3281 139.383 76.3906 135.164C78.4531 130.992 79.4844 126.258 79.4844 120.961C79.4844 115.617 78.4531 110.859 76.3906 106.688C74.3281 102.516 71.5391 98.9766 68.0234 96.0703C64.5547 93.1641 60.5 90.9375 55.8594 89.3906C51.2188 87.8438 46.3203 87.0703 41.1641 87.0703ZM38.8438 95.4375H41.1641C45.1484 95.4375 49.0156 96 52.7656 97.125C56.5156 98.25 59.8203 99.8906 62.6797 102.047C65.5859 104.203 67.9062 106.852 69.6406 109.992C71.375 113.133 72.2422 116.789 72.2422 120.961C72.2422 125.086 71.375 128.719 69.6406 131.859C67.9063 135.047 65.5859 137.742 62.6797 139.945C59.8203 142.055 56.5156 143.672 52.7656 144.797C49.0156 145.922 45.1484 146.508 41.1641 146.555H38.8438C34.8125 146.508 30.9219 145.922 27.1719 144.797C23.4688 143.719 20.1641 142.125 17.2578 140.016C14.3516 137.812 12.0312 135.141 10.2969 132C8.60938 128.859 7.76562 125.227 7.76562 121.102C7.76562 116.93 8.60938 113.25 10.2969 110.063C12.0312 106.875 14.3516 104.203 17.2578 102.047C20.1172 99.8906 23.4219 98.25 27.1719 97.125C30.9219 96 34.8125 95.4375 38.8438 95.4375ZM2 177.844V186.281H53.9609C56.3984 187.078 58.6953 188.203 60.8516 189.656C63.0547 191.109 64.9531 192.82 66.5469 194.789C68.2344 196.898 69.5703 199.242 70.5547 201.82C71.5859 204.398 72.1016 207.141 72.1016 210.047C72.1484 213.375 71.7031 216.234 70.7656 218.625C69.8281 221.062 68.4453 223.102 66.6172 224.742C64.7891 226.336 62.5391 227.508 59.8672 228.258C57.1953 229.055 54.125 229.477 50.6563 229.523H2V237.891H50.7969C55.3438 237.891 59.3984 237.328 62.9609 236.203C66.5234 235.078 69.5469 233.414 72.0313 231.211C74.4688 229.055 76.3203 226.359 77.5859 223.125C78.8516 219.938 79.4844 216.258 79.4844 212.086C79.4844 208.945 79.0156 205.969 78.0781 203.156C77.1406 200.391 75.875 197.859 74.2813 195.562C72.9219 193.594 71.3047 191.812 69.4297 190.219C67.5547 188.625 65.5156 187.242 63.3125 186.07L78.0781 185.578V177.844H2ZM97.5547 292.383V283.875H78.0781V262.711H71.1172V283.875H23.4453C19.2734 283.922 15.7344 284.531 12.8281 285.703C9.92188 286.922 7.57813 288.586 5.79688 290.695C3.96875 292.805 2.65625 295.289 1.85938 298.148C1.01563 301.055 0.59375 304.195 0.59375 307.57C0.59375 309.211 0.640625 310.852 0.734375 312.492C0.828125 314.18 1.01563 315.797 1.29688 317.344C1.48438 318.562 1.71875 319.711 2 320.789C2.28125 321.914 2.63281 322.898 3.05469 323.742L9.45313 322.477C9.3125 321.773 9.14844 320.93 8.96094 319.945C8.82031 319.008 8.67969 318.047 8.53906 317.062C8.39844 315.75 8.25781 314.414 8.11719 313.055C8.02344 311.695 7.97656 310.336 7.97656 308.977C7.97656 306.68 8.23438 304.523 8.75 302.508C9.26563 300.492 10.1328 298.734 11.3516 297.234C12.5234 295.734 14.0938 294.562 16.0625 293.719C18.0313 292.875 20.4922 292.43 23.4453 292.383H71.1172V320.578H78.0781V292.383H97.5547ZM2 403.125V412.125L2.84375 412.055C5.1875 411.398 7.64844 410.836 10.2266 410.367C12.8047 409.945 15.3828 409.734 17.9609 409.734H54.7344C58.8594 409.688 62.4688 408.891 65.5625 407.344C68.6563 405.844 71.2578 403.805 73.3672 401.227C75.3828 398.602 76.9063 395.531 77.9375 392.016C78.9688 388.5 79.4844 384.727 79.4844 380.695C79.4844 376.664 78.9219 372.867 77.7969 369.305C76.6719 365.789 75.125 362.695 73.1563 360.023C71.1406 357.352 68.7734 355.219 66.0547 353.625C63.3359 352.031 60.3594 351.164 57.125 351.023L57.0547 359.461C59.4453 359.508 61.5781 360.117 63.4531 361.289C65.375 362.508 66.9922 364.055 68.3047 365.93C69.6172 367.852 70.625 370.055 71.3281 372.539C72.0313 375.023 72.3828 377.625 72.3828 380.344C72.3828 383.297 71.9844 386.039 71.1875 388.57C70.4375 391.148 69.3359 393.375 67.8828 395.25C66.4297 397.125 64.6016 398.602 62.3984 399.68C60.2422 400.758 57.7344 401.32 54.875 401.367H46.2969V384.844C46.25 380.109 45.7813 375.586 44.8906 371.273C44.0469 366.961 42.6875 363.188 40.8125 359.953C38.8438 356.672 36.3359 354.047 33.2891 352.078C30.2422 350.156 26.5391 349.195 22.1797 349.195C18.8984 349.195 15.9219 349.852 13.25 351.164C10.625 352.477 8.375 354.258 6.5 356.508C4.625 358.758 3.17188 361.43 2.14063 364.523C1.10938 367.617 0.59375 370.922 0.59375 374.438C0.59375 377.25 0.898438 379.945 1.50781 382.523C2.07031 385.148 2.91406 387.633 4.03906 389.977C5.11719 392.273 6.42969 394.383 7.97656 396.305C9.57031 398.273 11.3281 399.984 13.25 401.438C11.2813 401.531 9.33594 401.695 7.41406 401.93C5.49219 402.211 3.6875 402.609 2 403.125ZM8.11719 375.352C8.11719 372.914 8.44531 370.594 9.10156 368.391C9.80469 366.234 10.8125 364.359 12.125 362.766C13.3906 361.172 14.9375 359.906 16.7656 358.969C18.5938 358.031 20.6563 357.562 22.9531 357.562C25.7656 357.562 28.1563 358.172 30.125 359.391C32.1406 360.656 33.8281 362.367 35.1875 364.523C36.875 367.195 38.0469 370.406 38.7031 374.156C39.3594 377.906 39.7109 381.867 39.7578 386.039V401.367H23.0234C20.7734 400.289 18.7344 398.883 16.9063 397.148C15.0781 395.414 13.5078 393.422 12.1953 391.172C10.8828 388.922 9.85156 386.461 9.10156 383.789C8.39844 381.117 8.07031 378.305 8.11719 375.352ZM7.76563 468.164C7.76563 463.711 8.65625 459.914 10.4375 456.773C12.2188 453.68 14.5625 451.148 17.4688 449.18C20.3281 447.211 23.5859 445.758 27.2422 444.82C30.9453 443.93 34.7188 443.484 38.5625 443.484H41.5156C45.3125 443.484 49.0391 443.93 52.6953 444.82C56.3516 445.758 59.6563 447.211 62.6094 449.18C65.4688 451.148 67.7891 453.68 69.5703 456.773C71.3516 459.914 72.2422 463.688 72.2422 468.094C72.2422 471.141 71.75 473.953 70.7656 476.531C69.7813 479.156 68.4219 481.453 66.6875 483.422C64.9063 485.344 62.7969 486.867 60.3594 487.992C57.9688 489.164 55.3438 489.844 52.4844 490.031V498.047C56.375 497.859 59.9844 496.992 63.3125 495.445C66.6406 493.898 69.5 491.812 71.8906 489.188C74.2813 486.562 76.1328 483.445 77.4453 479.836C78.8047 476.273 79.4844 472.359 79.4844 468.094C79.4844 462.562 78.4297 457.734 76.3203 453.609C74.2109 449.484 71.3984 446.062 67.8828 443.344C64.3672 440.578 60.3125 438.516 55.7188 437.156C51.125 435.797 46.3906 435.094 41.5156 435.047H38.5625C33.6406 435.094 28.8828 435.797 24.2891 437.156C19.7422 438.516 15.7344 440.578 12.2656 443.344C8.70313 446.109 5.86719 449.555 3.75781 453.68C1.64844 457.805 0.59375 462.633 0.59375 468.164C0.59375 472.055 1.20313 475.758 2.42188 479.273C3.6875 482.789 5.44531 485.906 7.69531 488.625C9.89844 491.344 12.5234 493.523 15.5703 495.164C18.6172 496.852 21.9219 497.812 25.4844 498.047V490.031C22.7656 489.797 20.3047 489.07 18.1016 487.852C15.9453 486.633 14.0938 485.039 12.5469 483.07C11 481.055 9.80469 478.758 8.96094 476.18C8.16406 473.648 7.76563 470.977 7.76563 468.164ZM97.5547 551.836V543.328H78.0781V522.164H71.1172V543.328H23.4453C19.2734 543.375 15.7344 543.984 12.8281 545.156C9.92188 546.375 7.57813 548.039 5.79688 550.148C3.96875 552.258 2.65625 554.742 1.85938 557.602C1.01563 560.508 0.59375 563.648 0.59375 567.023C0.59375 568.664 0.640625 570.305 0.734375 571.945C0.828125 573.633 1.01563 575.25 1.29688 576.797C1.48438 578.016 1.71875 579.164 2 580.242C2.28125 581.367 2.63281 582.352 3.05469 583.195L9.45313 581.93C9.3125 581.227 9.14844 580.383 8.96094 579.398C8.82031 578.461 8.67969 577.5 8.53906 576.516C8.39844 575.203 8.25781 573.867 8.11719 572.508C8.02344 571.148 7.97656 569.789 7.97656 568.43C7.97656 566.133 8.23438 563.977 8.75 561.961C9.26563 559.945 10.1328 558.188 11.3516 556.688C12.5234 555.188 14.0938 554.016 16.0625 553.172C18.0313 552.328 20.4922 551.883 23.4453 551.836H71.1172L71.1172 580.031H78.0781L78.0781 551.836H97.5547Z" fill="black" fill-opacity="0.2"/>
</svg>
