<svg width="504" height="186" viewBox="0 0 504 186" fill="none" xmlns="http://www.w3.org/2000/svg">
<path d="M32.656 128V40.96H47.376V128H32.656ZM3.47198 51.84V38.4H76.56V51.84H3.47198ZM85.663 129.28C79.6897 129.28 74.271 127.872 69.407 125.056C64.543 122.155 60.6603 118.272 57.759 113.408C54.943 108.544 53.535 103.125 53.535 97.152C53.535 91.1787 54.943 85.8027 57.759 81.024C60.6603 76.2453 64.543 72.448 69.407 69.632C74.271 66.7307 79.6897 65.28 85.663 65.28C91.7217 65.28 97.183 66.688 102.047 69.504C106.911 72.32 110.751 76.16 113.567 81.024C116.468 85.8027 117.919 91.1787 117.919 97.152C117.919 103.125 116.468 108.544 113.567 113.408C110.751 118.272 106.911 122.155 102.047 125.056C97.183 127.872 91.7217 129.28 85.663 129.28ZM85.663 115.712C89.1617 115.712 92.2337 114.944 94.879 113.408C97.6097 111.787 99.7003 109.568 101.151 106.752C102.687 103.936 103.455 100.736 103.455 97.152C103.455 93.568 102.687 90.4107 101.151 87.68C99.615 84.9493 97.5243 82.816 94.879 81.28C92.2337 79.6587 89.1617 78.848 85.663 78.848C82.2497 78.848 79.1777 79.6587 76.447 81.28C73.8017 82.816 71.711 84.9493 70.175 87.68C68.7243 90.4107 67.999 93.568 67.999 97.152C67.999 100.736 68.7243 103.936 70.175 106.752C71.711 109.568 73.8017 111.787 76.447 113.408C79.1777 114.944 82.2497 115.712 85.663 115.712ZM115.548 128V66.56H129.628V128H115.548ZM156.38 128V91.392C156.38 87.296 155.1 84.1387 152.54 81.92C149.98 79.616 146.823 78.464 143.068 78.464C140.508 78.464 138.204 78.976 136.156 80C134.193 81.024 132.615 82.5173 131.42 84.48C130.225 86.3573 129.628 88.6613 129.628 91.392L124.124 88.32C124.124 83.6267 125.148 79.5733 127.196 76.16C129.244 72.7467 132.017 70.1013 135.516 68.224C139.015 66.2613 142.94 65.28 147.292 65.28C151.644 65.28 155.569 66.2187 159.068 68.096C162.567 69.9733 165.34 72.6187 167.388 76.032C169.436 79.4453 170.46 83.5413 170.46 88.32V128H156.38ZM197.212 128V91.392C197.212 87.296 195.932 84.1387 193.372 81.92C190.812 79.616 187.655 78.464 183.9 78.464C181.425 78.464 179.164 78.976 177.116 80C175.068 81.024 173.447 82.5173 172.252 84.48C171.057 86.3573 170.46 88.6613 170.46 91.392L162.524 88.32C162.951 83.6267 164.316 79.5733 166.62 76.16C168.924 72.7467 171.868 70.1013 175.452 68.224C179.121 66.2613 183.132 65.28 187.484 65.28C191.921 65.28 195.932 66.2187 199.516 68.096C203.1 69.9733 205.959 72.6187 208.092 76.032C210.225 79.4453 211.292 83.5413 211.292 88.32V128H197.212ZM265.887 129.28C259.402 129.28 253.386 128.128 247.839 125.824C242.378 123.435 237.599 120.149 233.503 115.968C229.407 111.701 226.25 106.795 224.031 101.248C221.812 95.616 220.703 89.6 220.703 83.2C220.703 76.8 221.812 70.8267 224.031 65.28C226.25 59.648 229.407 54.7413 233.503 50.56C237.599 46.3787 242.378 43.0933 247.839 40.704C253.386 38.3147 259.402 37.12 265.887 37.12C273.14 37.12 279.412 38.3147 284.703 40.704C289.994 43.0933 294.687 46.336 298.783 50.432L288.799 60.416C286.154 57.5147 282.911 55.2533 279.071 53.632C275.316 52.0107 270.922 51.2 265.887 51.2C261.45 51.2 257.396 51.968 253.727 53.504C250.058 55.04 246.858 57.2587 244.127 60.16C241.482 62.976 239.434 66.3467 237.983 70.272C236.532 74.1973 235.807 78.5067 235.807 83.2C235.807 87.8933 236.532 92.2027 237.983 96.128C239.434 100.053 241.482 103.467 244.127 106.368C246.858 109.184 250.058 111.36 253.727 112.896C257.396 114.432 261.45 115.2 265.887 115.2C271.348 115.2 275.956 114.389 279.711 112.768C283.551 111.061 289.134 106.417 291.779 103.516L301.763 113.5C297.667 117.681 290.506 123.307 284.959 125.696C279.412 128.085 273.055 129.28 265.887 129.28ZM322.843 129.28C316.87 129.28 311.451 127.872 306.587 125.056C301.723 122.155 297.84 118.272 294.939 113.408C292.123 108.544 290.715 103.125 290.715 97.152C290.715 91.1787 292.123 85.8027 294.939 81.024C297.84 76.2453 301.723 72.448 306.587 69.632C311.451 66.7307 316.87 65.28 322.843 65.28C328.902 65.28 334.363 66.688 339.227 69.504C344.091 72.32 347.931 76.16 350.747 81.024C353.648 85.8027 355.099 91.1787 355.099 97.152C355.099 103.125 353.648 108.544 350.747 113.408C347.931 118.272 344.091 122.155 339.227 125.056C334.363 127.872 328.902 129.28 322.843 129.28ZM322.843 115.712C326.342 115.712 329.414 114.944 332.059 113.408C334.79 111.787 336.88 109.568 338.331 106.752C339.867 103.936 340.635 100.736 340.635 97.152C340.635 93.568 339.867 90.4107 338.331 87.68C336.795 84.9493 334.704 82.816 332.059 81.28C329.414 79.6587 326.342 78.848 322.843 78.848C319.43 78.848 316.358 79.6587 313.627 81.28C310.982 82.816 308.891 84.9493 307.355 87.68C305.904 90.4107 305.179 93.568 305.179 97.152C305.179 100.736 305.904 103.936 307.355 106.752C308.891 109.568 310.982 111.787 313.627 113.408C316.358 114.944 319.43 115.712 322.843 115.712ZM352.728 128V35.84H366.808V128H352.728ZM368.398 128V35.84H382.478V128H368.398ZM384.196 128V66.56H398.276V128H384.196ZM391.236 65.896C388.847 65.896 386.841 65.0853 385.22 63.464C383.684 61.8427 382.916 59.8373 382.916 57.448C382.916 55.0587 383.684 53.0533 385.22 51.432C386.841 49.8107 388.847 49 391.236 49C393.711 49 395.716 49.8107 397.252 51.432C398.788 53.0533 399.556 55.0587 399.556 57.448C399.556 59.8373 398.788 61.8427 397.252 63.464C395.716 65.0853 393.711 65.896 391.236 65.896ZM442.1 128V92.544C442.1 88.448 440.777 85.0773 438.132 82.432C435.572 79.7867 432.244 78.464 428.148 78.464C425.417 78.464 422.985 79.0613 420.852 80.256C418.719 81.4507 417.055 83.1147 415.86 85.248C414.665 87.3813 414.068 89.8133 414.068 92.544L408.564 89.472C408.564 84.7787 409.588 80.64 411.636 77.056C413.684 73.3867 416.5 70.528 420.084 68.48C423.753 66.3467 427.849 65.28 432.372 65.28C436.98 65.28 441.076 66.4747 444.66 68.864C448.244 71.168 451.06 74.1973 453.108 77.952C455.156 81.6213 456.18 85.4613 456.18 89.472V128H442.1ZM399.988 128V66.56H414.068V128H399.988ZM476.504 129.28C473.091 129.28 469.805 128.853 466.648 128C463.491 127.061 460.589 125.781 457.944 124.16C455.299 122.453 452.995 120.405 451.032 118.016L459.992 109.056C462.125 111.531 464.557 113.408 467.288 114.688C470.104 115.883 473.261 116.48 476.76 116.48C479.917 116.48 482.307 116.011 483.928 115.072C485.549 114.133 486.36 112.768 486.36 110.976C486.36 109.099 485.592 107.648 484.056 106.624C482.52 105.6 480.515 104.747 478.04 104.064C475.651 103.296 473.091 102.528 470.36 101.76C467.715 100.992 465.155 99.968 462.68 98.688C460.291 97.3227 458.328 95.488 456.792 93.184C455.256 90.88 454.488 87.8933 454.488 84.224C454.488 80.2987 455.384 76.928 457.176 74.112C459.053 71.296 461.656 69.12 464.984 67.584C468.397 66.048 472.451 65.28 477.144 65.28C482.093 65.28 486.445 66.176 490.2 67.968C494.04 69.6747 497.24 72.2773 499.8 75.776L490.84 84.736C489.048 82.5173 487 80.8533 484.696 79.744C482.392 78.6347 479.747 78.08 476.76 78.08C473.944 78.08 471.768 78.5067 470.232 79.36C468.696 80.2133 467.928 81.4507 467.928 83.072C467.928 84.7787 468.696 86.1013 470.232 87.04C471.768 87.9787 473.731 88.7893 476.12 89.472C478.595 90.1547 481.155 90.9227 483.8 91.776C486.531 92.544 489.091 93.6533 491.48 95.104C493.955 96.4693 495.96 98.3467 497.496 100.736C499.032 103.04 499.8 106.069 499.8 109.824C499.8 115.797 497.709 120.533 493.528 124.032C489.347 127.531 483.672 129.28 476.504 129.28Z" fill="#E14141"/>
<path d="M322.5 73.5C312 73.5 308.5 123 322.5 124" stroke="#E14141" stroke-width="3"/>
<path d="M324 73C334.5 73 338 122.5 324 123.5" stroke="#E14141" stroke-width="3"/>
<path d="M323.5 72V124" stroke="#E14141" stroke-width="3"/>
<path d="M303 98H345" stroke="#E14141" stroke-width="3"/>
<path d="M303 88H345" stroke="#E14141" stroke-width="3"/>
<path d="M304 108H346" stroke="#E14141" stroke-width="3"/>
<path d="M461 112.5C460 111 455 107.5 453.5 97.5" stroke="#E14141" stroke-width="3"/>
<path d="M458 113.5C457 112.5 455 109.5 454.5 109" stroke="#E14141" stroke-width="3"/>
<path d="M15.5125 166.37C13.5391 166.37 11.8371 166 10.4065 165.26C8.97581 164.495 7.74248 163.447 6.70648 162.115L8.07548 160.783C9.03748 162.09 10.1228 163.052 11.3315 163.669C12.5648 164.261 13.9831 164.557 15.5865 164.557C17.3131 164.557 18.7191 164.15 19.8045 163.336C20.8898 162.522 21.4325 161.387 21.4325 159.932C21.4325 158.822 21.1981 157.922 20.7295 157.231C20.2608 156.54 19.6318 155.973 18.8425 155.529C18.0778 155.085 17.2268 154.69 16.2895 154.345C15.3768 154 14.4518 153.654 13.5145 153.309C12.6018 152.939 11.7631 152.495 10.9985 151.977C10.2338 151.434 9.60481 150.744 9.11148 149.905C8.64281 149.066 8.40848 148.006 8.40848 146.723C8.40848 145.44 8.71681 144.33 9.33348 143.393C9.97481 142.431 10.8381 141.691 11.9235 141.173C13.0335 140.655 14.3038 140.396 15.7345 140.396C17.3625 140.396 18.8178 140.717 20.1005 141.358C21.3831 141.975 22.4561 142.85 23.3195 143.985L21.9505 145.317C21.1365 144.306 20.2238 143.541 19.2125 143.023C18.2258 142.48 17.0541 142.209 15.6975 142.209C14.1188 142.209 12.8361 142.604 11.8495 143.393C10.8875 144.158 10.4065 145.231 10.4065 146.612C10.4065 147.648 10.6408 148.487 11.1095 149.128C11.5781 149.769 12.1948 150.312 12.9595 150.756C13.7488 151.175 14.5998 151.545 15.5125 151.866C16.4498 152.187 17.3748 152.532 18.2875 152.902C19.2001 153.272 20.0388 153.741 20.8035 154.308C21.5928 154.851 22.2218 155.554 22.6905 156.417C23.1591 157.28 23.3935 158.378 23.3935 159.71C23.3935 161.856 22.6781 163.509 21.2475 164.668C19.8415 165.803 17.9298 166.37 15.5125 166.37ZM47.0353 166.37C45.358 166.37 43.841 165.975 42.4843 165.186C41.1523 164.372 40.0917 163.287 39.3023 161.93C38.513 160.549 38.1183 159.019 38.1183 157.342C38.1183 155.665 38.513 154.16 39.3023 152.828C40.0917 151.471 41.1523 150.398 42.4843 149.609C43.841 148.82 45.358 148.425 47.0353 148.425C48.688 148.425 50.1803 148.82 51.5123 149.609C52.869 150.398 53.942 151.471 54.7313 152.828C55.5207 154.16 55.9153 155.665 55.9153 157.342C55.9153 159.044 55.5207 160.573 54.7313 161.93C53.942 163.287 52.869 164.372 51.5123 165.186C50.1803 165.975 48.688 166.37 47.0353 166.37ZM47.0353 164.594C48.3427 164.594 49.5143 164.273 50.5503 163.632C51.611 162.991 52.4373 162.127 53.0293 161.042C53.646 159.932 53.9543 158.686 53.9543 157.305C53.9543 155.948 53.646 154.74 53.0293 153.679C52.4373 152.618 51.611 151.78 50.5503 151.163C49.5143 150.522 48.3427 150.201 47.0353 150.201C45.7033 150.201 44.507 150.522 43.4463 151.163C42.4103 151.78 41.584 152.618 40.9673 153.679C40.3507 154.74 40.0423 155.961 40.0423 157.342C40.0423 158.723 40.3507 159.957 40.9673 161.042C41.584 162.127 42.4103 162.991 43.4463 163.632C44.507 164.273 45.7033 164.594 47.0353 164.594ZM73.6646 166V145.539C73.6646 144.38 73.9113 143.368 74.4046 142.505C74.898 141.617 75.5763 140.926 76.4396 140.433C77.3276 139.94 78.339 139.693 79.4736 139.693C80.337 139.693 81.114 139.841 81.8046 140.137C82.4953 140.433 83.0996 140.865 83.6176 141.432L82.3966 142.69C81.9773 142.246 81.521 141.925 81.0276 141.728C80.5343 141.506 80.004 141.395 79.4366 141.395C78.2033 141.395 77.2413 141.777 76.5506 142.542C75.86 143.307 75.5146 144.343 75.5146 145.65V166H73.6646ZM69.1876 150.46V148.795H81.5826V150.46H69.1876ZM98.3558 166V141.506H100.243V166H98.3558ZM93.9158 150.46V148.795H104.683V150.46H93.9158ZM124.503 166L117.991 148.795H119.952L125.465 164.002H124.651L130.164 148.795H131.274L136.787 164.002H135.973L141.486 148.795H143.447L136.972 166H135.825L130.238 150.756H131.237L125.613 166H124.503ZM165.484 166.37C163.832 166.37 162.339 165.975 161.007 165.186C159.7 164.397 158.664 163.336 157.899 162.004C157.135 160.647 156.752 159.118 156.752 157.416C156.752 155.739 157.135 154.222 157.899 152.865C158.664 151.508 159.7 150.435 161.007 149.646C162.315 148.832 163.782 148.425 165.41 148.425C166.742 148.425 167.926 148.684 168.962 149.202C170.023 149.695 170.886 150.398 171.552 151.311C172.243 152.224 172.687 153.309 172.884 154.567V160.191C172.662 161.449 172.206 162.547 171.515 163.484C170.849 164.397 169.998 165.112 168.962 165.63C167.951 166.123 166.792 166.37 165.484 166.37ZM165.743 164.594C167.717 164.594 169.283 163.94 170.442 162.633C171.626 161.301 172.218 159.562 172.218 157.416C172.218 155.961 171.947 154.703 171.404 153.642C170.886 152.557 170.134 151.718 169.147 151.126C168.161 150.509 167.014 150.201 165.706 150.201C164.35 150.201 163.141 150.509 162.08 151.126C161.044 151.743 160.218 152.594 159.601 153.679C159.009 154.764 158.713 155.998 158.713 157.379C158.713 158.785 159.009 160.031 159.601 161.116C160.218 162.201 161.057 163.052 162.117 163.669C163.178 164.286 164.387 164.594 165.743 164.594ZM172.144 166V161.375L172.551 157.157L172.144 152.976V148.795H174.031V166H172.144ZM190.863 166V148.795H192.75V166H190.863ZM192.75 155.714L191.825 155.381C191.825 153.186 192.38 151.484 193.49 150.275C194.6 149.042 196.056 148.425 197.856 148.425C198.695 148.425 199.472 148.573 200.187 148.869C200.927 149.165 201.606 149.646 202.222 150.312L200.964 151.644C200.496 151.126 199.99 150.756 199.447 150.534C198.905 150.312 198.263 150.201 197.523 150.201C196.117 150.201 194.97 150.682 194.082 151.644C193.194 152.581 192.75 153.938 192.75 155.714ZM223.869 166.37C222.167 166.37 220.625 165.975 219.244 165.186C217.887 164.397 216.814 163.324 216.025 161.967C215.236 160.61 214.841 159.081 214.841 157.379C214.841 155.677 215.223 154.16 215.988 152.828C216.753 151.471 217.801 150.398 219.133 149.609C220.49 148.82 221.994 148.425 223.647 148.425C225.226 148.425 226.607 148.783 227.791 149.498C229 150.189 229.937 151.151 230.603 152.384C231.294 153.617 231.639 155.036 231.639 156.639C231.639 156.787 231.627 156.984 231.602 157.231C231.577 157.453 231.54 157.737 231.491 158.082H216.173V156.454H230.418L229.789 156.972C229.838 155.615 229.616 154.431 229.123 153.42C228.63 152.384 227.914 151.582 226.977 151.015C226.04 150.448 224.917 150.164 223.61 150.164C222.253 150.164 221.057 150.472 220.021 151.089C218.985 151.681 218.171 152.507 217.579 153.568C217.012 154.629 216.728 155.862 216.728 157.268C216.728 158.748 217.024 160.043 217.616 161.153C218.233 162.238 219.084 163.089 220.169 163.706C221.254 164.298 222.525 164.594 223.98 164.594C225.09 164.594 226.114 164.397 227.051 164.002C228.013 163.583 228.815 162.966 229.456 162.152L230.714 163.373C229.925 164.31 228.926 165.05 227.717 165.593C226.533 166.111 225.25 166.37 223.869 166.37ZM274.4 166.37C272.426 166.37 270.724 166 269.294 165.26C267.863 164.495 266.63 163.447 265.594 162.115L266.963 160.783C267.925 162.09 269.01 163.052 270.219 163.669C271.452 164.261 272.87 164.557 274.474 164.557C276.2 164.557 277.606 164.15 278.692 163.336C279.777 162.522 280.32 161.387 280.32 159.932C280.32 158.822 280.085 157.922 279.617 157.231C279.148 156.54 278.519 155.973 277.73 155.529C276.965 155.085 276.114 154.69 275.177 154.345C274.264 154 273.339 153.654 272.402 153.309C271.489 152.939 270.65 152.495 269.886 151.977C269.121 151.434 268.492 150.744 267.999 149.905C267.53 149.066 267.296 148.006 267.296 146.723C267.296 145.44 267.604 144.33 268.221 143.393C268.862 142.431 269.725 141.691 270.811 141.173C271.921 140.655 273.191 140.396 274.622 140.396C276.25 140.396 277.705 140.717 278.988 141.358C280.27 141.975 281.343 142.85 282.207 143.985L280.838 145.317C280.024 144.306 279.111 143.541 278.1 143.023C277.113 142.48 275.941 142.209 274.585 142.209C273.006 142.209 271.723 142.604 270.737 143.393C269.775 144.158 269.294 145.231 269.294 146.612C269.294 147.648 269.528 148.487 269.997 149.128C270.465 149.769 271.082 150.312 271.847 150.756C272.636 151.175 273.487 151.545 274.4 151.866C275.337 152.187 276.262 152.532 277.175 152.902C278.087 153.272 278.926 153.741 279.691 154.308C280.48 154.851 281.109 155.554 281.578 156.417C282.046 157.28 282.281 158.378 282.281 159.71C282.281 161.856 281.565 163.509 280.135 164.668C278.729 165.803 276.817 166.37 274.4 166.37ZM305.923 166.37C304.245 166.37 302.728 165.975 301.372 165.186C300.04 164.372 298.979 163.287 298.19 161.93C297.4 160.549 297.006 159.019 297.006 157.342C297.006 155.665 297.4 154.16 298.19 152.828C298.979 151.471 300.04 150.398 301.372 149.609C302.728 148.82 304.245 148.425 305.923 148.425C307.575 148.425 309.068 148.82 310.4 149.609C311.756 150.398 312.829 151.471 313.619 152.828C314.408 154.16 314.803 155.665 314.803 157.342C314.803 159.044 314.408 160.573 313.619 161.93C312.829 163.287 311.756 164.372 310.4 165.186C309.068 165.975 307.575 166.37 305.923 166.37ZM305.923 164.594C307.23 164.594 308.402 164.273 309.438 163.632C310.498 162.991 311.325 162.127 311.917 161.042C312.533 159.932 312.842 158.686 312.842 157.305C312.842 155.948 312.533 154.74 311.917 153.679C311.325 152.618 310.498 151.78 309.438 151.163C308.402 150.522 307.23 150.201 305.923 150.201C304.591 150.201 303.394 150.522 302.334 151.163C301.298 151.78 300.471 152.618 299.855 153.679C299.238 154.74 298.93 155.961 298.93 157.342C298.93 158.723 299.238 159.957 299.855 161.042C300.471 162.127 301.298 162.991 302.334 163.632C303.394 164.273 304.591 164.594 305.923 164.594ZM330.538 166V140.026H332.425V166H330.538ZM356.001 166.37C354.619 166.37 353.386 166.049 352.301 165.408C351.215 164.767 350.364 163.879 349.748 162.744C349.156 161.609 348.86 160.302 348.86 158.822V148.795H350.747V158.748C350.747 159.907 350.956 160.931 351.376 161.819C351.82 162.682 352.436 163.361 353.226 163.854C354.015 164.347 354.94 164.594 356.001 164.594C357.579 164.594 358.837 164.064 359.775 163.003C360.737 161.918 361.218 160.499 361.218 158.748V148.795H363.105V158.822C363.105 160.302 362.796 161.609 362.18 162.744C361.588 163.879 360.749 164.767 359.664 165.408C358.603 166.049 357.382 166.37 356.001 166.37ZM382.222 166V141.506H384.109V166H382.222ZM377.782 150.46V148.795H388.549V150.46H377.782ZM403.671 166V148.795H405.521V166H403.671ZM404.596 144.799C404.176 144.799 403.819 144.651 403.523 144.355C403.251 144.034 403.116 143.664 403.116 143.245C403.116 142.826 403.251 142.48 403.523 142.209C403.819 141.913 404.176 141.765 404.596 141.765C405.015 141.765 405.373 141.913 405.669 142.209C405.965 142.48 406.113 142.826 406.113 143.245C406.113 143.664 405.965 144.034 405.669 144.355C405.373 144.651 405.015 144.799 404.596 144.799ZM430.241 166.37C428.564 166.37 427.047 165.975 425.69 165.186C424.358 164.372 423.297 163.287 422.508 161.93C421.719 160.549 421.324 159.019 421.324 157.342C421.324 155.665 421.719 154.16 422.508 152.828C423.297 151.471 424.358 150.398 425.69 149.609C427.047 148.82 428.564 148.425 430.241 148.425C431.894 148.425 433.386 148.82 434.718 149.609C436.075 150.398 437.148 151.471 437.937 152.828C438.726 154.16 439.121 155.665 439.121 157.342C439.121 159.044 438.726 160.573 437.937 161.93C437.148 163.287 436.075 164.372 434.718 165.186C433.386 165.975 431.894 166.37 430.241 166.37ZM430.241 164.594C431.548 164.594 432.72 164.273 433.756 163.632C434.817 162.991 435.643 162.127 436.235 161.042C436.852 159.932 437.16 158.686 437.16 157.305C437.16 155.948 436.852 154.74 436.235 153.679C435.643 152.618 434.817 151.78 433.756 151.163C432.72 150.522 431.548 150.201 430.241 150.201C428.909 150.201 427.713 150.522 426.652 151.163C425.616 151.78 424.79 152.618 424.173 153.679C423.556 154.74 423.248 155.961 423.248 157.342C423.248 158.723 423.556 159.957 424.173 161.042C424.79 162.127 425.616 162.991 426.652 163.632C427.713 164.273 428.909 164.594 430.241 164.594ZM467.807 166V155.788C467.807 154.111 467.314 152.754 466.327 151.718C465.34 150.682 464.033 150.164 462.405 150.164C461.295 150.164 460.308 150.411 459.445 150.904C458.606 151.373 457.94 152.026 457.447 152.865C456.978 153.704 456.744 154.678 456.744 155.788L455.782 155.233C455.782 153.926 456.09 152.766 456.707 151.755C457.324 150.719 458.162 149.905 459.223 149.313C460.284 148.721 461.492 148.425 462.849 148.425C464.206 148.425 465.39 148.746 466.401 149.387C467.437 150.004 468.239 150.855 468.806 151.94C469.373 153.025 469.657 154.234 469.657 155.566V166H467.807ZM454.857 166V148.795H456.744V166H454.857ZM491.302 166.37C490.365 166.37 489.477 166.247 488.638 166C487.824 165.729 487.072 165.359 486.381 164.89C485.715 164.421 485.123 163.879 484.605 163.262L485.863 162.004C486.554 162.917 487.356 163.595 488.268 164.039C489.206 164.458 490.229 164.668 491.339 164.668C492.622 164.668 493.633 164.409 494.373 163.891C495.113 163.373 495.483 162.645 495.483 161.708C495.483 160.869 495.249 160.216 494.78 159.747C494.312 159.254 493.695 158.871 492.93 158.6C492.19 158.329 491.401 158.07 490.562 157.823C489.748 157.576 488.959 157.28 488.194 156.935C487.454 156.59 486.85 156.109 486.381 155.492C485.913 154.875 485.678 154.049 485.678 153.013C485.678 152.1 485.913 151.299 486.381 150.608C486.85 149.917 487.504 149.387 488.342 149.017C489.206 148.622 490.217 148.425 491.376 148.425C492.659 148.425 493.806 148.647 494.817 149.091C495.853 149.535 496.68 150.189 497.296 151.052L496.075 152.31C495.582 151.619 494.916 151.089 494.077 150.719C493.239 150.324 492.301 150.127 491.265 150.127C490.032 150.127 489.095 150.386 488.453 150.904C487.812 151.422 487.491 152.088 487.491 152.902C487.491 153.667 487.726 154.271 488.194 154.715C488.663 155.159 489.267 155.504 490.007 155.751C490.772 155.998 491.561 156.244 492.375 156.491C493.214 156.713 494.003 157.009 494.743 157.379C495.508 157.749 496.125 158.255 496.593 158.896C497.062 159.537 497.296 160.413 497.296 161.523C497.296 163.003 496.754 164.187 495.668 165.075C494.583 165.938 493.128 166.37 491.302 166.37Z" fill="#3729D5"/>
</svg>
