<svg width="250" height="183" viewBox="0 0 250 183" fill="none" xmlns="http://www.w3.org/2000/svg">
<mask id="path-1-inside-1_448_64" fill="white">
<path d="M0 32C0 26.4772 4.47715 22 10 22H240C245.523 22 250 26.4772 250 32V143H0V32Z"/>
</mask>
<path d="M0 32C0 26.4772 4.47715 22 10 22H240C245.523 22 250 26.4772 250 32V143H0V32Z" fill="white"/>
<path d="M-3 32C-3 24.8203 2.8203 19 10 19H240C247.18 19 253 24.8203 253 32H247C247 28.134 243.866 25 240 25H10C6.13401 25 3 28.134 3 32H-3ZM250 143H0H250ZM-3 143V32C-3 24.8203 2.8203 19 10 19V25C6.13401 25 3 28.134 3 32V143H-3ZM240 19C247.18 19 253 24.8203 253 32V143H247V32C247 28.134 243.866 25 240 25V19Z" fill="#2E2878" mask="url(#path-1-inside-1_448_64)"/>
<mask id="path-3-inside-2_448_64" fill="white">
<path d="M0 143H250V172C250 177.523 245.523 182 240 182H10C4.47716 182 0 177.523 0 172V143Z"/>
</mask>
<path d="M0 143H250V172C250 177.523 245.523 182 240 182H10C4.47716 182 0 177.523 0 172V143Z" fill="#2E2878"/>
<path d="M0 143H250H0ZM253 172C253 179.18 247.18 185 240 185H10C2.8203 185 -3 179.18 -3 172H3C3 175.866 6.13401 179 10 179H240C243.866 179 247 175.866 247 172H253ZM10 185C2.8203 185 -3 179.18 -3 172V143H3V172C3 175.866 6.13401 179 10 179V185ZM253 143V172C253 179.18 247.18 185 240 185V179C243.866 179 247 175.866 247 172V143H253Z" fill="#2E2878" mask="url(#path-3-inside-2_448_64)"/>
<path d="M37.1605 128V38.912H57.2565V128H37.1605ZM8.8725 55.168V37.632H85.5445V55.168H8.8725ZM134.897 129.408C128.155 129.408 121.883 128.256 116.081 125.952C110.363 123.563 105.329 120.235 100.977 115.968C96.7098 111.701 93.3818 106.752 90.9925 101.12C88.6032 95.4027 87.4085 89.2587 87.4085 82.688C87.4085 76.1173 88.6032 70.016 90.9925 64.384C93.3818 58.6667 96.7098 53.7173 100.977 49.536C105.243 45.3547 110.235 42.112 115.953 39.808C121.755 37.4187 128.027 36.224 134.769 36.224C141.937 36.224 148.294 37.376 153.84 39.68C159.473 41.984 164.379 45.1413 168.561 49.152L155.121 62.72C152.731 60.16 149.83 58.1547 146.417 56.704C143.089 55.2533 139.206 54.528 134.769 54.528C130.843 54.528 127.217 55.2107 123.889 56.576C120.646 57.856 117.83 59.7333 115.441 62.208C113.137 64.6827 111.302 67.6693 109.937 71.168C108.657 74.6667 108.017 78.5067 108.017 82.688C108.017 86.9547 108.657 90.8373 109.937 94.336C111.302 97.8347 113.137 100.821 115.441 103.296C117.83 105.771 120.646 107.691 123.889 109.056C127.217 110.421 130.843 111.104 134.769 111.104C139.377 111.104 143.387 110.379 146.801 108.928C150.214 107.477 153.158 105.472 155.632 102.912L169.201 116.48C164.849 120.491 159.857 123.648 154.225 125.952C148.678 128.256 142.235 129.408 134.897 129.408ZM205.903 129.408C198.479 129.408 192.079 128.213 186.703 125.824C181.412 123.349 176.548 119.637 172.111 114.688L185.167 101.76C188.068 105.088 191.268 107.691 194.767 109.568C198.351 111.36 202.489 112.256 207.183 112.256C211.449 112.256 214.735 111.488 217.039 109.952C219.428 108.416 220.623 106.283 220.623 103.552C220.623 101.077 219.855 99.072 218.319 97.536C216.783 96 214.735 94.6773 212.175 93.568C209.7 92.4587 206.927 91.392 203.854 90.368C200.868 89.344 197.881 88.192 194.895 86.912C191.908 85.5467 189.135 83.8827 186.575 81.92C184.1 79.872 182.095 77.3547 180.559 74.368C179.023 71.296 178.255 67.456 178.255 62.848C178.255 57.3013 179.577 52.5227 182.223 48.512C184.953 44.5013 188.708 41.472 193.487 39.424C198.265 37.2907 203.769 36.224 209.999 36.224C216.313 36.224 222.073 37.3333 227.279 39.552C232.569 41.7707 236.921 44.8 240.335 48.64L227.279 61.568C224.548 58.752 221.775 56.6613 218.959 55.296C216.228 53.9307 213.113 53.248 209.615 53.248C206.116 53.248 203.343 53.9307 201.295 55.296C199.247 56.576 198.223 58.4533 198.223 60.928C198.223 63.232 198.991 65.1093 200.527 66.56C202.063 67.9253 204.068 69.12 206.543 70.144C209.103 71.168 211.876 72.192 214.863 73.216C217.935 74.24 220.964 75.4347 223.951 76.8C226.937 78.1653 229.668 79.9147 232.143 82.048C234.703 84.096 236.751 86.7413 238.287 89.984C239.823 93.1413 240.59 97.0667 240.59 101.76C240.59 110.379 237.519 117.163 231.375 122.112C225.231 126.976 216.74 129.408 205.903 129.408Z" fill="#E70000"/>
<path d="M24.6705 158.761L21.9602 159.528C21.7898 159.077 21.5384 158.638 21.206 158.212C20.8821 157.777 20.4389 157.419 19.8764 157.138C19.3139 156.857 18.5938 156.716 17.7159 156.716C16.5142 156.716 15.5128 156.993 14.7116 157.547C13.919 158.092 13.5227 158.787 13.5227 159.631C13.5227 160.381 13.7955 160.973 14.3409 161.408C14.8864 161.842 15.7386 162.205 16.8977 162.494L19.8125 163.21C21.5682 163.636 22.8764 164.288 23.7372 165.166C24.598 166.036 25.0284 167.156 25.0284 168.528C25.0284 169.653 24.7045 170.659 24.0568 171.545C23.4176 172.432 22.5227 173.131 21.3722 173.642C20.2216 174.153 18.8835 174.409 17.358 174.409C15.3551 174.409 13.6974 173.974 12.3849 173.105C11.0724 172.236 10.2415 170.966 9.89205 169.295L12.7557 168.58C13.0284 169.636 13.544 170.429 14.3026 170.957C15.0696 171.486 16.071 171.75 17.3068 171.75C18.7131 171.75 19.8295 171.452 20.6562 170.855C21.4915 170.25 21.9091 169.526 21.9091 168.682C21.9091 168 21.6705 167.429 21.1932 166.969C20.7159 166.5 19.983 166.151 18.9943 165.92L15.7216 165.153C13.9233 164.727 12.6023 164.067 11.7585 163.172C10.9233 162.268 10.5057 161.139 10.5057 159.784C10.5057 158.676 10.8168 157.696 11.4389 156.844C12.0696 155.991 12.9261 155.322 14.0085 154.837C15.0994 154.351 16.3352 154.108 17.7159 154.108C19.6591 154.108 21.1847 154.534 22.2926 155.386C23.4091 156.239 24.2017 157.364 24.6705 158.761ZM47.9872 174.409C46.2145 174.409 44.6591 173.987 43.321 173.143C41.9915 172.3 40.9517 171.119 40.2017 169.602C39.4602 168.085 39.0895 166.312 39.0895 164.284C39.0895 162.239 39.4602 160.453 40.2017 158.928C40.9517 157.402 41.9915 156.217 43.321 155.374C44.6591 154.53 46.2145 154.108 47.9872 154.108C49.76 154.108 51.3111 154.53 52.6406 155.374C53.9787 156.217 55.0185 157.402 55.76 158.928C56.51 160.453 56.885 162.239 56.885 164.284C56.885 166.312 56.51 168.085 55.76 169.602C55.0185 171.119 53.9787 172.3 52.6406 173.143C51.3111 173.987 49.76 174.409 47.9872 174.409ZM47.9872 171.699C49.3338 171.699 50.4418 171.354 51.3111 170.663C52.1804 169.973 52.8239 169.065 53.2415 167.94C53.6591 166.815 53.8679 165.597 53.8679 164.284C53.8679 162.972 53.6591 161.749 53.2415 160.615C52.8239 159.482 52.1804 158.565 51.3111 157.866C50.4418 157.168 49.3338 156.818 47.9872 156.818C46.6406 156.818 45.5327 157.168 44.6634 157.866C43.794 158.565 43.1506 159.482 42.733 160.615C42.3154 161.749 42.1065 162.972 42.1065 164.284C42.1065 165.597 42.3154 166.815 42.733 167.94C43.1506 169.065 43.794 169.973 44.6634 170.663C45.5327 171.354 46.6406 171.699 47.9872 171.699ZM74.9475 147.818V174H71.9304V147.818H74.9475ZM103.288 165.972V154.364H106.305V174H103.288V170.676H103.084C102.624 171.673 101.908 172.521 100.936 173.22C99.9645 173.911 98.7373 174.256 97.2543 174.256C96.027 174.256 94.9361 173.987 93.9816 173.45C93.027 172.905 92.277 172.087 91.7316 170.996C91.1861 169.896 90.9134 168.511 90.9134 166.841V154.364H93.9304V166.636C93.9304 168.068 94.331 169.21 95.1321 170.062C95.9418 170.915 96.9731 171.341 98.2259 171.341C98.9759 171.341 99.7387 171.149 100.514 170.766C101.298 170.382 101.955 169.794 102.483 169.001C103.02 168.209 103.288 167.199 103.288 165.972ZM130.811 154.364V156.92H120.635V154.364H130.811ZM123.601 149.659H126.618V168.375C126.618 169.227 126.742 169.866 126.989 170.293C127.244 170.71 127.568 170.991 127.96 171.136C128.361 171.273 128.783 171.341 129.226 171.341C129.558 171.341 129.831 171.324 130.044 171.29C130.257 171.247 130.428 171.213 130.555 171.188L131.169 173.898C130.965 173.974 130.679 174.051 130.313 174.128C129.946 174.213 129.482 174.256 128.919 174.256C128.067 174.256 127.232 174.072 126.413 173.706C125.604 173.339 124.93 172.781 124.394 172.031C123.865 171.281 123.601 170.335 123.601 169.193V149.659ZM145.789 174V154.364H148.807V174H145.789ZM147.324 151.091C146.736 151.091 146.228 150.891 145.802 150.49C145.385 150.089 145.176 149.608 145.176 149.045C145.176 148.483 145.385 148.001 145.802 147.601C146.228 147.2 146.736 147 147.324 147C147.912 147 148.414 147.2 148.832 147.601C149.258 148.001 149.471 148.483 149.471 149.045C149.471 149.608 149.258 150.089 148.832 150.49C148.414 150.891 147.912 151.091 147.324 151.091ZM172.75 174.409C170.977 174.409 169.422 173.987 168.084 173.143C166.754 172.3 165.714 171.119 164.964 169.602C164.223 168.085 163.852 166.312 163.852 164.284C163.852 162.239 164.223 160.453 164.964 158.928C165.714 157.402 166.754 156.217 168.084 155.374C169.422 154.53 170.977 154.108 172.75 154.108C174.522 154.108 176.074 154.53 177.403 155.374C178.741 156.217 179.781 157.402 180.522 158.928C181.272 160.453 181.647 162.239 181.647 164.284C181.647 166.312 181.272 168.085 180.522 169.602C179.781 171.119 178.741 172.3 177.403 173.143C176.074 173.987 174.522 174.409 172.75 174.409ZM172.75 171.699C174.096 171.699 175.204 171.354 176.074 170.663C176.943 169.973 177.586 169.065 178.004 167.94C178.422 166.815 178.63 165.597 178.63 164.284C178.63 162.972 178.422 161.749 178.004 160.615C177.586 159.482 176.943 158.565 176.074 157.866C175.204 157.168 174.096 156.818 172.75 156.818C171.403 156.818 170.295 157.168 169.426 157.866C168.557 158.565 167.913 159.482 167.495 160.615C167.078 161.749 166.869 162.972 166.869 164.284C166.869 165.597 167.078 166.815 167.495 167.94C167.913 169.065 168.557 169.973 169.426 170.663C170.295 171.354 171.403 171.699 172.75 171.699ZM199.71 162.188V174H196.693V154.364H199.608V157.432H199.863C200.324 156.435 201.022 155.634 201.96 155.028C202.897 154.415 204.108 154.108 205.591 154.108C206.92 154.108 208.084 154.381 209.081 154.926C210.078 155.463 210.853 156.281 211.407 157.381C211.961 158.472 212.238 159.852 212.238 161.523V174H209.221V161.727C209.221 160.185 208.821 158.983 208.02 158.122C207.218 157.253 206.119 156.818 204.721 156.818C203.758 156.818 202.897 157.027 202.139 157.445C201.389 157.862 200.797 158.472 200.362 159.273C199.927 160.074 199.71 161.045 199.71 162.188ZM242.101 158.761L239.39 159.528C239.22 159.077 238.968 158.638 238.636 158.212C238.312 157.777 237.869 157.419 237.307 157.138C236.744 156.857 236.024 156.716 235.146 156.716C233.944 156.716 232.943 156.993 232.142 157.547C231.349 158.092 230.953 158.787 230.953 159.631C230.953 160.381 231.226 160.973 231.771 161.408C232.317 161.842 233.169 162.205 234.328 162.494L237.243 163.21C238.998 163.636 240.307 164.288 241.167 165.166C242.028 166.036 242.459 167.156 242.459 168.528C242.459 169.653 242.135 170.659 241.487 171.545C240.848 172.432 239.953 173.131 238.802 173.642C237.652 174.153 236.314 174.409 234.788 174.409C232.785 174.409 231.128 173.974 229.815 173.105C228.503 172.236 227.672 170.966 227.322 169.295L230.186 168.58C230.459 169.636 230.974 170.429 231.733 170.957C232.5 171.486 233.501 171.75 234.737 171.75C236.143 171.75 237.26 171.452 238.086 170.855C238.922 170.25 239.339 169.526 239.339 168.682C239.339 168 239.101 167.429 238.623 166.969C238.146 166.5 237.413 166.151 236.424 165.92L233.152 165.153C231.353 164.727 230.032 164.067 229.189 163.172C228.353 162.268 227.936 161.139 227.936 159.784C227.936 158.676 228.247 157.696 228.869 156.844C229.5 155.991 230.356 155.322 231.439 154.837C232.53 154.351 233.765 154.108 235.146 154.108C237.089 154.108 238.615 154.534 239.723 155.386C240.839 156.239 241.632 157.364 242.101 158.761Z" fill="white"/>
</svg>
