<svg width="504" height="183" viewBox="0 0 504 183" fill="none" xmlns="http://www.w3.org/2000/svg">
<path d="M32.656 128V40.96H47.376V128H32.656ZM3.47199 51.84V38.4H76.56V51.84H3.47199ZM85.663 129.28C79.6897 129.28 74.271 127.872 69.407 125.056C64.543 122.155 60.6603 118.272 57.759 113.408C54.943 108.544 53.535 103.125 53.535 97.152C53.535 91.1787 54.943 85.8027 57.759 81.024C60.6603 76.2453 64.543 72.448 69.407 69.632C74.271 66.7307 79.6897 65.28 85.663 65.28C91.7217 65.28 97.183 66.688 102.047 69.504C106.911 72.32 110.751 76.16 113.567 81.024C116.468 85.8027 117.919 91.1787 117.919 97.152C117.919 103.125 116.468 108.544 113.567 113.408C110.751 118.272 106.911 122.155 102.047 125.056C97.183 127.872 91.7217 129.28 85.663 129.28ZM85.663 115.712C89.1617 115.712 92.2337 114.944 94.879 113.408C97.6097 111.787 99.7003 109.568 101.151 106.752C102.687 103.936 103.455 100.736 103.455 97.152C103.455 93.568 102.687 90.4107 101.151 87.68C99.615 84.9493 97.5243 82.816 94.879 81.28C92.2337 79.6587 89.1617 78.848 85.663 78.848C82.2497 78.848 79.1777 79.6587 76.447 81.28C73.8017 82.816 71.711 84.9493 70.175 87.68C68.7243 90.4107 67.999 93.568 67.999 97.152C67.999 100.736 68.7243 103.936 70.175 106.752C71.711 109.568 73.8017 111.787 76.447 113.408C79.1777 114.944 82.2497 115.712 85.663 115.712ZM115.548 128V66.56H129.628V128H115.548ZM156.38 128V91.392C156.38 87.296 155.1 84.1387 152.54 81.92C149.98 79.616 146.823 78.464 143.068 78.464C140.508 78.464 138.204 78.976 136.156 80C134.193 81.024 132.615 82.5173 131.42 84.48C130.225 86.3573 129.628 88.6613 129.628 91.392L124.124 88.32C124.124 83.6267 125.148 79.5733 127.196 76.16C129.244 72.7467 132.017 70.1013 135.516 68.224C139.015 66.2613 142.94 65.28 147.292 65.28C151.644 65.28 155.569 66.2187 159.068 68.096C162.567 69.9733 165.34 72.6187 167.388 76.032C169.436 79.4453 170.46 83.5413 170.46 88.32V128H156.38ZM197.212 128V91.392C197.212 87.296 195.932 84.1387 193.372 81.92C190.812 79.616 187.655 78.464 183.9 78.464C181.425 78.464 179.164 78.976 177.116 80C175.068 81.024 173.447 82.5173 172.252 84.48C171.057 86.3573 170.46 88.6613 170.46 91.392L162.524 88.32C162.951 83.6267 164.316 79.5733 166.62 76.16C168.924 72.7467 171.868 70.1013 175.452 68.224C179.121 66.2613 183.132 65.28 187.484 65.28C191.921 65.28 195.932 66.2187 199.516 68.096C203.1 69.9733 205.959 72.6187 208.092 76.032C210.225 79.4453 211.292 83.5413 211.292 88.32V128H197.212ZM265.887 129.28C259.402 129.28 253.386 128.128 247.839 125.824C242.378 123.435 237.599 120.149 233.503 115.968C229.407 111.701 226.25 106.795 224.031 101.248C221.812 95.616 220.703 89.6 220.703 83.2C220.703 76.8 221.812 70.8267 224.031 65.28C226.25 59.648 229.407 54.7413 233.503 50.56C237.599 46.3787 242.378 43.0933 247.839 40.704C253.386 38.3147 259.402 37.12 265.887 37.12C273.14 37.12 279.412 38.3147 284.703 40.704C289.994 43.0933 294.687 46.336 298.783 50.432L288.799 60.416C286.154 57.5147 282.911 55.2533 279.071 53.632C275.316 52.0107 270.922 51.2 265.887 51.2C261.45 51.2 257.396 51.968 253.727 53.504C250.058 55.04 246.858 57.2587 244.127 60.16C241.482 62.976 239.434 66.3467 237.983 70.272C236.532 74.1973 235.807 78.5067 235.807 83.2C235.807 87.8933 236.532 92.2027 237.983 96.128C239.434 100.053 241.482 103.467 244.127 106.368C246.858 109.184 250.058 111.36 253.727 112.896C257.396 114.432 261.45 115.2 265.887 115.2C271.348 115.2 275.956 114.389 279.711 112.768C283.551 111.061 286.794 108.757 289.439 105.856L299.423 115.84C295.327 120.021 290.506 123.307 284.959 125.696C279.412 128.085 273.055 129.28 265.887 129.28ZM322.843 129.28C316.87 129.28 311.451 127.872 306.587 125.056C301.723 122.155 297.84 118.272 294.939 113.408C292.123 108.544 290.715 103.125 290.715 97.152C290.715 91.1787 292.123 85.8027 294.939 81.024C297.84 76.2453 301.723 72.448 306.587 69.632C311.451 66.7307 316.87 65.28 322.843 65.28C328.902 65.28 334.363 66.688 339.227 69.504C344.091 72.32 347.931 76.16 350.747 81.024C353.648 85.8027 355.099 91.1787 355.099 97.152C355.099 103.125 353.648 108.544 350.747 113.408C347.931 118.272 344.091 122.155 339.227 125.056C334.363 127.872 328.902 129.28 322.843 129.28ZM322.843 115.712C326.342 115.712 329.414 114.944 332.059 113.408C334.79 111.787 336.88 109.568 338.331 106.752C339.867 103.936 340.635 100.736 340.635 97.152C340.635 93.568 339.867 90.4107 338.331 87.68C336.795 84.9493 334.704 82.816 332.059 81.28C329.414 79.6587 326.342 78.848 322.843 78.848C319.43 78.848 316.358 79.6587 313.627 81.28C310.982 82.816 308.891 84.9493 307.355 87.68C305.904 90.4107 305.179 93.568 305.179 97.152C305.179 100.736 305.904 103.936 307.355 106.752C308.891 109.568 310.982 111.787 313.627 113.408C316.358 114.944 319.43 115.712 322.843 115.712ZM352.728 128V35.84H366.808V128H352.728ZM368.398 128V35.84H382.478V128H368.398ZM384.196 128V66.56H398.276V128H384.196ZM391.236 55.296C388.847 55.296 386.841 54.4853 385.22 52.864C383.684 51.2427 382.916 49.2373 382.916 46.848C382.916 44.4587 383.684 42.4533 385.22 40.832C386.841 39.2107 388.847 38.4 391.236 38.4C393.711 38.4 395.716 39.2107 397.252 40.832C398.788 42.4533 399.556 44.4587 399.556 46.848C399.556 49.2373 398.788 51.2427 397.252 52.864C395.716 54.4853 393.711 55.296 391.236 55.296ZM442.1 128V92.544C442.1 88.448 440.777 85.0773 438.132 82.432C435.572 79.7867 432.244 78.464 428.148 78.464C425.417 78.464 422.985 79.0613 420.852 80.256C418.719 81.4507 417.055 83.1147 415.86 85.248C414.665 87.3813 414.068 89.8133 414.068 92.544L408.564 89.472C408.564 84.7787 409.588 80.64 411.636 77.056C413.684 73.3867 416.5 70.528 420.084 68.48C423.753 66.3467 427.849 65.28 432.372 65.28C436.98 65.28 441.076 66.4747 444.66 68.864C448.244 71.168 451.06 74.1973 453.108 77.952C455.156 81.6213 456.18 85.4613 456.18 89.472V128H442.1ZM399.988 128V66.56H414.068V128H399.988ZM476.504 129.28C473.091 129.28 469.805 128.853 466.648 128C463.491 127.061 460.589 125.781 457.944 124.16C455.299 122.453 452.995 120.405 451.032 118.016L459.992 109.056C462.125 111.531 464.557 113.408 467.288 114.688C470.104 115.883 473.261 116.48 476.76 116.48C479.917 116.48 482.307 116.011 483.928 115.072C485.549 114.133 486.36 112.768 486.36 110.976C486.36 109.099 485.592 107.648 484.056 106.624C482.52 105.6 480.515 104.747 478.04 104.064C475.651 103.296 473.091 102.528 470.36 101.76C467.715 100.992 465.155 99.968 462.68 98.688C460.291 97.3227 458.328 95.488 456.792 93.184C455.256 90.88 454.488 87.8933 454.488 84.224C454.488 80.2987 455.384 76.928 457.176 74.112C459.053 71.296 461.656 69.12 464.984 67.584C468.397 66.048 472.451 65.28 477.144 65.28C482.093 65.28 486.445 66.176 490.2 67.968C494.04 69.6747 497.24 72.2773 499.8 75.776L490.84 84.736C489.048 82.5173 487 80.8533 484.696 79.744C482.392 78.6347 479.747 78.08 476.76 78.08C473.944 78.08 471.768 78.5067 470.232 79.36C468.696 80.2133 467.928 81.4507 467.928 83.072C467.928 84.7787 468.696 86.1013 470.232 87.04C471.768 87.9787 473.731 88.7893 476.12 89.472C478.595 90.1547 481.155 90.9227 483.8 91.776C486.531 92.544 489.091 93.6533 491.48 95.104C493.955 96.4693 495.96 98.3467 497.496 100.736C499.032 103.04 499.8 106.069 499.8 109.824C499.8 115.797 497.709 120.533 493.528 124.032C489.347 127.531 483.672 129.28 476.504 129.28Z" fill="#2B42B6"/>
<path d="M322.5 73.5C312 73.5 308.5 123 322.5 124" stroke="#2B42B6" stroke-width="3"/>
<path d="M324 73C334.5 73 338 122.5 324 123.5" stroke="#2B42B6" stroke-width="3"/>
<path d="M15.5125 173.37C13.5391 173.37 11.8371 173 10.4065 172.26C8.97581 171.495 7.74248 170.447 6.70648 169.115L8.07548 167.783C9.03748 169.09 10.1228 170.052 11.3315 170.669C12.5648 171.261 13.9831 171.557 15.5865 171.557C17.3131 171.557 18.7191 171.15 19.8045 170.336C20.8898 169.522 21.4325 168.387 21.4325 166.932C21.4325 165.822 21.1981 164.922 20.7295 164.231C20.2608 163.54 19.6318 162.973 18.8425 162.529C18.0778 162.085 17.2268 161.69 16.2895 161.345C15.3768 161 14.4518 160.654 13.5145 160.309C12.6018 159.939 11.7631 159.495 10.9985 158.977C10.2338 158.434 9.60481 157.744 9.11148 156.905C8.64281 156.066 8.40848 155.006 8.40848 153.723C8.40848 152.44 8.71681 151.33 9.33348 150.393C9.97481 149.431 10.8381 148.691 11.9235 148.173C13.0335 147.655 14.3038 147.396 15.7345 147.396C17.3625 147.396 18.8178 147.717 20.1005 148.358C21.3831 148.975 22.4561 149.85 23.3195 150.985L21.9505 152.317C21.1365 151.306 20.2238 150.541 19.2125 150.023C18.2258 149.48 17.0541 149.209 15.6975 149.209C14.1188 149.209 12.8361 149.604 11.8495 150.393C10.8875 151.158 10.4065 152.231 10.4065 153.612C10.4065 154.648 10.6408 155.487 11.1095 156.128C11.5781 156.769 12.1948 157.312 12.9595 157.756C13.7488 158.175 14.5998 158.545 15.5125 158.866C16.4498 159.187 17.3748 159.532 18.2875 159.902C19.2001 160.272 20.0388 160.741 20.8035 161.308C21.5928 161.851 22.2218 162.554 22.6905 163.417C23.1591 164.28 23.3935 165.378 23.3935 166.71C23.3935 168.856 22.6781 170.509 21.2475 171.668C19.8415 172.803 17.9298 173.37 15.5125 173.37ZM47.0353 173.37C45.358 173.37 43.841 172.975 42.4843 172.186C41.1523 171.372 40.0917 170.287 39.3023 168.93C38.513 167.549 38.1183 166.019 38.1183 164.342C38.1183 162.665 38.513 161.16 39.3023 159.828C40.0917 158.471 41.1523 157.398 42.4843 156.609C43.841 155.82 45.358 155.425 47.0353 155.425C48.688 155.425 50.1803 155.82 51.5123 156.609C52.869 157.398 53.942 158.471 54.7313 159.828C55.5207 161.16 55.9153 162.665 55.9153 164.342C55.9153 166.044 55.5207 167.573 54.7313 168.93C53.942 170.287 52.869 171.372 51.5123 172.186C50.1803 172.975 48.688 173.37 47.0353 173.37ZM47.0353 171.594C48.3427 171.594 49.5143 171.273 50.5503 170.632C51.611 169.991 52.4373 169.127 53.0293 168.042C53.646 166.932 53.9543 165.686 53.9543 164.305C53.9543 162.948 53.646 161.74 53.0293 160.679C52.4373 159.618 51.611 158.78 50.5503 158.163C49.5143 157.522 48.3427 157.201 47.0353 157.201C45.7033 157.201 44.507 157.522 43.4463 158.163C42.4103 158.78 41.584 159.618 40.9673 160.679C40.3507 161.74 40.0423 162.961 40.0423 164.342C40.0423 165.723 40.3507 166.957 40.9673 168.042C41.584 169.127 42.4103 169.991 43.4463 170.632C44.507 171.273 45.7033 171.594 47.0353 171.594ZM73.6646 173V152.539C73.6646 151.38 73.9113 150.368 74.4046 149.505C74.898 148.617 75.5763 147.926 76.4396 147.433C77.3276 146.94 78.339 146.693 79.4736 146.693C80.337 146.693 81.114 146.841 81.8046 147.137C82.4953 147.433 83.0996 147.865 83.6176 148.432L82.3966 149.69C81.9773 149.246 81.521 148.925 81.0276 148.728C80.5343 148.506 80.004 148.395 79.4366 148.395C78.2033 148.395 77.2413 148.777 76.5506 149.542C75.86 150.307 75.5146 151.343 75.5146 152.65V173H73.6646ZM69.1876 157.46V155.795H81.5826V157.46H69.1876ZM98.3558 173V148.506H100.243V173H98.3558ZM93.9158 157.46V155.795H104.683V157.46H93.9158ZM124.503 173L117.991 155.795H119.952L125.465 171.002H124.651L130.164 155.795H131.274L136.787 171.002H135.973L141.486 155.795H143.447L136.972 173H135.825L130.238 157.756H131.237L125.613 173H124.503ZM165.484 173.37C163.832 173.37 162.339 172.975 161.007 172.186C159.7 171.397 158.664 170.336 157.899 169.004C157.135 167.647 156.752 166.118 156.752 164.416C156.752 162.739 157.135 161.222 157.899 159.865C158.664 158.508 159.7 157.435 161.007 156.646C162.315 155.832 163.782 155.425 165.41 155.425C166.742 155.425 167.926 155.684 168.962 156.202C170.023 156.695 170.886 157.398 171.552 158.311C172.243 159.224 172.687 160.309 172.884 161.567V167.191C172.662 168.449 172.206 169.547 171.515 170.484C170.849 171.397 169.998 172.112 168.962 172.63C167.951 173.123 166.792 173.37 165.484 173.37ZM165.743 171.594C167.717 171.594 169.283 170.94 170.442 169.633C171.626 168.301 172.218 166.562 172.218 164.416C172.218 162.961 171.947 161.703 171.404 160.642C170.886 159.557 170.134 158.718 169.147 158.126C168.161 157.509 167.014 157.201 165.706 157.201C164.35 157.201 163.141 157.509 162.08 158.126C161.044 158.743 160.218 159.594 159.601 160.679C159.009 161.764 158.713 162.998 158.713 164.379C158.713 165.785 159.009 167.031 159.601 168.116C160.218 169.201 161.057 170.052 162.117 170.669C163.178 171.286 164.387 171.594 165.743 171.594ZM172.144 173V168.375L172.551 164.157L172.144 159.976V155.795H174.031V173H172.144ZM190.863 173V155.795H192.75V173H190.863ZM192.75 162.714L191.825 162.381C191.825 160.186 192.38 158.484 193.49 157.275C194.6 156.042 196.056 155.425 197.856 155.425C198.695 155.425 199.472 155.573 200.187 155.869C200.927 156.165 201.606 156.646 202.222 157.312L200.964 158.644C200.496 158.126 199.99 157.756 199.447 157.534C198.905 157.312 198.263 157.201 197.523 157.201C196.117 157.201 194.97 157.682 194.082 158.644C193.194 159.581 192.75 160.938 192.75 162.714ZM223.869 173.37C222.167 173.37 220.625 172.975 219.244 172.186C217.887 171.397 216.814 170.324 216.025 168.967C215.236 167.61 214.841 166.081 214.841 164.379C214.841 162.677 215.223 161.16 215.988 159.828C216.753 158.471 217.801 157.398 219.133 156.609C220.49 155.82 221.994 155.425 223.647 155.425C225.226 155.425 226.607 155.783 227.791 156.498C229 157.189 229.937 158.151 230.603 159.384C231.294 160.617 231.639 162.036 231.639 163.639C231.639 163.787 231.627 163.984 231.602 164.231C231.577 164.453 231.54 164.737 231.491 165.082H216.173V163.454H230.418L229.789 163.972C229.838 162.615 229.616 161.431 229.123 160.42C228.63 159.384 227.914 158.582 226.977 158.015C226.04 157.448 224.917 157.164 223.61 157.164C222.253 157.164 221.057 157.472 220.021 158.089C218.985 158.681 218.171 159.507 217.579 160.568C217.012 161.629 216.728 162.862 216.728 164.268C216.728 165.748 217.024 167.043 217.616 168.153C218.233 169.238 219.084 170.089 220.169 170.706C221.254 171.298 222.525 171.594 223.98 171.594C225.09 171.594 226.114 171.397 227.051 171.002C228.013 170.583 228.815 169.966 229.456 169.152L230.714 170.373C229.925 171.31 228.926 172.05 227.717 172.593C226.533 173.111 225.25 173.37 223.869 173.37ZM274.4 173.37C272.426 173.37 270.724 173 269.294 172.26C267.863 171.495 266.63 170.447 265.594 169.115L266.963 167.783C267.925 169.09 269.01 170.052 270.219 170.669C271.452 171.261 272.87 171.557 274.474 171.557C276.2 171.557 277.606 171.15 278.692 170.336C279.777 169.522 280.32 168.387 280.32 166.932C280.32 165.822 280.085 164.922 279.617 164.231C279.148 163.54 278.519 162.973 277.73 162.529C276.965 162.085 276.114 161.69 275.177 161.345C274.264 161 273.339 160.654 272.402 160.309C271.489 159.939 270.65 159.495 269.886 158.977C269.121 158.434 268.492 157.744 267.999 156.905C267.53 156.066 267.296 155.006 267.296 153.723C267.296 152.44 267.604 151.33 268.221 150.393C268.862 149.431 269.725 148.691 270.811 148.173C271.921 147.655 273.191 147.396 274.622 147.396C276.25 147.396 277.705 147.717 278.988 148.358C280.27 148.975 281.343 149.85 282.207 150.985L280.838 152.317C280.024 151.306 279.111 150.541 278.1 150.023C277.113 149.48 275.941 149.209 274.585 149.209C273.006 149.209 271.723 149.604 270.737 150.393C269.775 151.158 269.294 152.231 269.294 153.612C269.294 154.648 269.528 155.487 269.997 156.128C270.465 156.769 271.082 157.312 271.847 157.756C272.636 158.175 273.487 158.545 274.4 158.866C275.337 159.187 276.262 159.532 277.175 159.902C278.087 160.272 278.926 160.741 279.691 161.308C280.48 161.851 281.109 162.554 281.578 163.417C282.046 164.28 282.281 165.378 282.281 166.71C282.281 168.856 281.565 170.509 280.135 171.668C278.729 172.803 276.817 173.37 274.4 173.37ZM305.923 173.37C304.245 173.37 302.728 172.975 301.372 172.186C300.04 171.372 298.979 170.287 298.19 168.93C297.4 167.549 297.006 166.019 297.006 164.342C297.006 162.665 297.4 161.16 298.19 159.828C298.979 158.471 300.04 157.398 301.372 156.609C302.728 155.82 304.245 155.425 305.923 155.425C307.575 155.425 309.068 155.82 310.4 156.609C311.756 157.398 312.829 158.471 313.619 159.828C314.408 161.16 314.803 162.665 314.803 164.342C314.803 166.044 314.408 167.573 313.619 168.93C312.829 170.287 311.756 171.372 310.4 172.186C309.068 172.975 307.575 173.37 305.923 173.37ZM305.923 171.594C307.23 171.594 308.402 171.273 309.438 170.632C310.498 169.991 311.325 169.127 311.917 168.042C312.533 166.932 312.842 165.686 312.842 164.305C312.842 162.948 312.533 161.74 311.917 160.679C311.325 159.618 310.498 158.78 309.438 158.163C308.402 157.522 307.23 157.201 305.923 157.201C304.591 157.201 303.394 157.522 302.334 158.163C301.298 158.78 300.471 159.618 299.855 160.679C299.238 161.74 298.93 162.961 298.93 164.342C298.93 165.723 299.238 166.957 299.855 168.042C300.471 169.127 301.298 169.991 302.334 170.632C303.394 171.273 304.591 171.594 305.923 171.594ZM330.538 173V147.026H332.425V173H330.538ZM356.001 173.37C354.619 173.37 353.386 173.049 352.301 172.408C351.215 171.767 350.364 170.879 349.748 169.744C349.156 168.609 348.86 167.302 348.86 165.822V155.795H350.747V165.748C350.747 166.907 350.956 167.931 351.376 168.819C351.82 169.682 352.436 170.361 353.226 170.854C354.015 171.347 354.94 171.594 356.001 171.594C357.579 171.594 358.837 171.064 359.775 170.003C360.737 168.918 361.218 167.499 361.218 165.748V155.795H363.105V165.822C363.105 167.302 362.796 168.609 362.18 169.744C361.588 170.879 360.749 171.767 359.664 172.408C358.603 173.049 357.382 173.37 356.001 173.37ZM382.222 173V148.506H384.109V173H382.222ZM377.782 157.46V155.795H388.549V157.46H377.782ZM403.671 173V155.795H405.521V173H403.671ZM404.596 151.799C404.176 151.799 403.819 151.651 403.523 151.355C403.251 151.034 403.116 150.664 403.116 150.245C403.116 149.826 403.251 149.48 403.523 149.209C403.819 148.913 404.176 148.765 404.596 148.765C405.015 148.765 405.373 148.913 405.669 149.209C405.965 149.48 406.113 149.826 406.113 150.245C406.113 150.664 405.965 151.034 405.669 151.355C405.373 151.651 405.015 151.799 404.596 151.799ZM430.241 173.37C428.564 173.37 427.047 172.975 425.69 172.186C424.358 171.372 423.297 170.287 422.508 168.93C421.719 167.549 421.324 166.019 421.324 164.342C421.324 162.665 421.719 161.16 422.508 159.828C423.297 158.471 424.358 157.398 425.69 156.609C427.047 155.82 428.564 155.425 430.241 155.425C431.894 155.425 433.386 155.82 434.718 156.609C436.075 157.398 437.148 158.471 437.937 159.828C438.726 161.16 439.121 162.665 439.121 164.342C439.121 166.044 438.726 167.573 437.937 168.93C437.148 170.287 436.075 171.372 434.718 172.186C433.386 172.975 431.894 173.37 430.241 173.37ZM430.241 171.594C431.548 171.594 432.72 171.273 433.756 170.632C434.817 169.991 435.643 169.127 436.235 168.042C436.852 166.932 437.16 165.686 437.16 164.305C437.16 162.948 436.852 161.74 436.235 160.679C435.643 159.618 434.817 158.78 433.756 158.163C432.72 157.522 431.548 157.201 430.241 157.201C428.909 157.201 427.713 157.522 426.652 158.163C425.616 158.78 424.79 159.618 424.173 160.679C423.556 161.74 423.248 162.961 423.248 164.342C423.248 165.723 423.556 166.957 424.173 168.042C424.79 169.127 425.616 169.991 426.652 170.632C427.713 171.273 428.909 171.594 430.241 171.594ZM467.807 173V162.788C467.807 161.111 467.314 159.754 466.327 158.718C465.34 157.682 464.033 157.164 462.405 157.164C461.295 157.164 460.308 157.411 459.445 157.904C458.606 158.373 457.94 159.026 457.447 159.865C456.978 160.704 456.744 161.678 456.744 162.788L455.782 162.233C455.782 160.926 456.09 159.766 456.707 158.755C457.324 157.719 458.162 156.905 459.223 156.313C460.284 155.721 461.492 155.425 462.849 155.425C464.206 155.425 465.39 155.746 466.401 156.387C467.437 157.004 468.239 157.855 468.806 158.94C469.373 160.025 469.657 161.234 469.657 162.566V173H467.807ZM454.857 173V155.795H456.744V173H454.857ZM491.302 173.37C490.365 173.37 489.477 173.247 488.638 173C487.824 172.729 487.072 172.359 486.381 171.89C485.715 171.421 485.123 170.879 484.605 170.262L485.863 169.004C486.554 169.917 487.356 170.595 488.268 171.039C489.206 171.458 490.229 171.668 491.339 171.668C492.622 171.668 493.633 171.409 494.373 170.891C495.113 170.373 495.483 169.645 495.483 168.708C495.483 167.869 495.249 167.216 494.78 166.747C494.312 166.254 493.695 165.871 492.93 165.6C492.19 165.329 491.401 165.07 490.562 164.823C489.748 164.576 488.959 164.28 488.194 163.935C487.454 163.59 486.85 163.109 486.381 162.492C485.913 161.875 485.678 161.049 485.678 160.013C485.678 159.1 485.913 158.299 486.381 157.608C486.85 156.917 487.504 156.387 488.342 156.017C489.206 155.622 490.217 155.425 491.376 155.425C492.659 155.425 493.806 155.647 494.817 156.091C495.853 156.535 496.68 157.189 497.296 158.052L496.075 159.31C495.582 158.619 494.916 158.089 494.077 157.719C493.239 157.324 492.301 157.127 491.265 157.127C490.032 157.127 489.095 157.386 488.453 157.904C487.812 158.422 487.491 159.088 487.491 159.902C487.491 160.667 487.726 161.271 488.194 161.715C488.663 162.159 489.267 162.504 490.007 162.751C490.772 162.998 491.561 163.244 492.375 163.491C493.214 163.713 494.003 164.009 494.743 164.379C495.508 164.749 496.125 165.255 496.593 165.896C497.062 166.537 497.296 167.413 497.296 168.523C497.296 170.003 496.754 171.187 495.668 172.075C494.583 172.938 493.128 173.37 491.302 173.37Z" fill="#2B42B6"/>
<path d="M323.5 72V124" stroke="#2B42B6" stroke-width="3"/>
<path d="M303 98H345" stroke="#2B42B6" stroke-width="3"/>
<path d="M303 88H345" stroke="#2B42B6" stroke-width="3"/>
<path d="M304 108H346" stroke="#2B42B6" stroke-width="3"/>
<path d="M290 107.5C290.833 106.833 293.7 102.2 296.5 97" stroke="#2B42B6" stroke-width="3"/>
<path d="M292 109.5C292.833 108.833 295.7 104.2 298.5 99" stroke="#2B42B6" stroke-width="3"/>
<path d="M461 112.5C460 111 455 107.5 453.5 97.5" stroke="#2B42B6" stroke-width="3"/>
<path d="M458 113.5C457 112.5 455 109.5 454.5 109" stroke="#2B42B6" stroke-width="3"/>
</svg>
