<svg width="662" height="1135" viewBox="0 0 662 1135" fill="none" xmlns="http://www.w3.org/2000/svg">
<path d="M-467.918 731.849C-331.716 850.88 -148.685 757.002 -117.317 759.884C-201.04 871.092 -179.378 985.486 -158.083 1028.78C-101.934 1135.07 9.79778 1097.93 41.7603 1094.33C73.7227 1090.74 104.606 1066.1 111.57 990.284C117.057 930.535 129.515 925.737 134.957 866.487C170.608 888.339 202.211 915.735 215.134 999.796C236.822 1140.87 407.071 1127.89 431.508 956.405C438.288 908.825 317.94 786.137 271.44 763.957C353.298 782.02 532.864 789.877 596.272 676.802C675.532 535.459 467.323 462.61 401.971 447.068C349.689 434.634 257.292 411.886 219.893 452.804C261.66 388.019 273.99 358.994 254.421 227.653C234.851 96.3128 81.3094 -57.8769 -20.8351 157.684C-122.98 373.245 -97.8087 372.545 -72.1929 476.323C-226.318 430.534 -343.271 479.024 -413.945 500.651C-502.288 527.684 -529.662 677.889 -467.918 731.849Z" fill="#283382"/>
<path d="M75.0001 571.5C117 547.5 129 597.5 137 605.5C127 622.833 100.6 654.7 75.0001 643.5C43.0002 629.5 59 665.5 19 671.5C-21 677.5 -2.9999 645.5 -16.9999 625.5C-30.9999 605.5 33.0001 595.5 75.0001 571.5Z" fill="#FDC72F"/>
</svg>
