<svg width="604" height="890" viewBox="0 0 604 890" fill="none" xmlns="http://www.w3.org/2000/svg">
<path d="M388.97 889.175C235.77 895.975 209.136 710.008 280.97 601.675C209.803 614.008 97.9698 718.175 23.4698 660.675C-51.0301 603.174 68.1124 449.818 153.968 439.175C288.858 422.454 229.02 446.036 322.968 430.675C249.635 437.508 188.268 365.475 143.468 286.675C87.4685 188.175 97.9685 59.6749 168.97 19.1747C301.346 -56.3344 370.47 114.175 388.97 134.175C403.77 150.175 464.136 252.508 492.469 301.675C490.969 242.175 536.469 203.675 578.469 114.175C620.469 24.6747 757.969 19.1747 851.469 36.1747C944.969 53.1747 917.469 180.175 861.469 263.175C816.669 329.575 697.136 394.508 642.969 418.675C666.636 424.341 743.469 448.175 861.469 498.175C1008.97 560.675 1005.47 713.175 874.969 787.675C770.569 847.275 612.302 727.841 556.968 660.675C492.469 837.175 520.97 889.175 388.97 889.175Z" fill="#0094C7"/>
<path d="M457.968 410.675C434.368 411.475 424.635 442.175 434.468 460.675C431.802 465.842 429.568 478.575 441.968 488.175C457.468 500.175 453.968 460.675 463.968 460.675C473.968 460.675 470.968 482.175 482.468 476.175C493.968 470.175 491.468 469.175 495.468 445.675C499.468 422.175 507.968 439.675 520.968 436.675C533.968 433.675 531.968 442.675 550.468 445.675C568.968 448.675 554.468 427.175 550.468 420.175C546.468 413.175 529.968 421.175 520.968 427.175C511.968 433.175 509.968 423.175 507.968 404.175C505.968 385.175 487.468 409.675 457.968 410.675Z" fill="#FFDC7E"/>
</svg>
